<?xml version="1.0" encoding="utf-8"?>
<!-- Generator: Adobe Illustrator 25.0.1, SVG Export Plug-In . SVG Version: 6.00 Build 0)  -->
<svg version="1.1" xmlns="http://www.w3.org/2000/svg" xmlns:xlink="http://www.w3.org/1999/xlink" x="0px" y="0px"
	 viewBox="0 0 465.8 122.8" style="enable-background:new 0 0 465.8 122.8;" xml:space="preserve">
<style type="text/css">
	.st0{fill:#5BACE1;stroke:#000000;stroke-miterlimit:10;}
	.st1{fill:#004875;stroke:#004875;stroke-width:1.2283;stroke-miterlimit:10;}
	.st2{fill:#3E97D3;stroke:#004875;stroke-width:1.2283;stroke-miterlimit:10;}
	.st3{fill:none;stroke:#000000;stroke-width:1.0214;stroke-miterlimit:10;}
	.st4{fill:none;stroke:#000000;stroke-miterlimit:10;}
	.st5{fill:#024875;}
	.st6{fill:#004875;}
</style>
<g id="color">
</g>
<g id="Capa_1">
	<rect x="6.5" y="7.8" class="st0" width="110" height="110"/>
	<path class="st1" d="M15.2,23.2c-0.1,14.6-0.2,29.2-0.3,43.9c0.2,1.4,1.1,8.5,7.1,13.6c6.1,5.2,13,4.3,14.7,4.1
		c11.9-1.6,17.6-14.1,18-15.1l0.4-48.4l-10.4,2.4c-0.1,14.4-0.3,28.7-0.4,43.1c-1.2,4.6-5.2,7.7-9.6,7.5c-4.4-0.2-8.1-3.7-8.9-8.5
		l-0.1-44.4L15.2,23.2z"/>
	<path class="st1" d="M60.5,99.5V37.4l9.6-2.3c0,2.1,0,4.1,0,6.2c1.8-1.1,5.8-3.2,11.2-3.3c5.3-0.1,9.4,1.8,11.2,2.9
		c1.6,0.8,4.4,2.5,6.8,5.7c2.5,3.5,3.3,6.9,3.7,9.3c0.5,2.4,1.4,7.4-0.3,13.3c-0.5,1.6-3,9.7-10.7,13.9c-10.4,5.7-20.7-1.1-21.3-1.5
		c-0.1,5.1-0.2,10.1-0.3,15.2c0,0.2,0,0.4,0,0.6L60.5,99.5z"/>
	<path class="st2" d="M70,62c0-1.2,0.2-5.8,3.5-9.7c0.9-1.1,3.2-3.8,7.1-4.4c5.4-0.9,9.3,3,9.7,3.4c2.7,2.9,3.3,6.3,3.6,8
		c0.2,1.2,1.2,7.6-2.9,12.4c-2.6,3.1-5.9,3.9-6.7,4.1c-0.4,0.1-6.6,1.3-11-3.7C69.9,68.2,70,63.3,70,62z"/>
	<path class="st3" d="M161.2,75.7"/>
	<path class="st3" d="M139.4,55.5"/>
	<path class="st3" d="M161.3,32.5"/>
	<path class="st4" d="M160.7,87"/>
	<path class="st4" d="M126.9,59"/>
	<path class="st4" d="M161.7,21.1"/>
	<path class="st4" d="M161.3,20.8"/>
	<path class="st4" d="M161.3,32.5"/>
	<g id="C_1_">
		<g>
			<path class="st5" d="M162,105.1c-21,0-37-14.4-37-38.6c0-25.2,15.4-39.9,37.9-39.9c29.4,0,32.8,24,33.4,25L176.4,56
				c-0.6-2.6-2.2-12.4-14.3-12.4c-12.5,0-16.6,9.6-16.6,21.8c0,12.4,3.6,22.6,16.3,22.6c13.3,0,14.5-14.5,15.1-15.7l19.5,5.8
				C195.6,79.5,192.3,105.1,162,105.1z M162.9,31.2c-20.5,0-33.2,13.5-33.2,35.3c0,20.7,12.7,34,32.2,34c14.7,0,24.1-6.3,28.6-19.3
				l-10.3-3.1c-2.9,8.9-9,14.5-18.5,14.5c-15.5,0-21-12.1-21-27.2c0-19,9.4-26.4,21.3-26.4c8.4,0,15,4.4,17.6,11.5l10.5-2.3
				C184.9,34.2,172.6,31.2,162.9,31.2L162.9,31.2z"/>
		</g>
	</g>
	<g id="L_1_">
		<g>
			<path class="st6" d="M250.7,104H205V26.6h15.8v60.5h29.9V104z M208.8,99.4h38.1v-7.8H217V31.1h-8.2V99.4z"/>
		</g>
	</g>
	<g id="A_1_">
		<g>
			<path class="st6" d="M323.6,104.7h-16.9l-5-16.6h-20.5l-4.8,16.6h-16.6l24.2-78.1h14.9L323.6,104.7z M309.3,100.1h8.9l-21.9-68.9
				h-9.8l-21.3,68.9h8.6l4.8-16.6h25.7L309.3,100.1z M301.9,75.7h-21.1l10.4-36.3L301.9,75.7z M286.1,71.1h10.5l-5.3-18L286.1,71.1z
				"/>
		</g>
	</g>
	<g id="S_1_">
		<g>
			<path class="st6" d="M363,106.1c-17,0-27.9-8.5-30-26.9l-0.3-2.4l17.4-1.8l0.4,2.1c1.4,8.2,5.3,11.9,12.7,11.9
				c4.1,0,11.2-1.6,11.2-7.6c0-2.1-0.8-3.7-4.9-5.3c-8.8-3.2-24.9-4.5-31.3-15.9c-1.8-3.1-2.7-6.9-2.7-11.1
				c0-11.7,8.5-22.6,26.8-22.6c19.1,0,27.6,10.6,28,24.2l0.1,2.3l-17.6,0.8l-0.3-2c-1-6.3-3.7-8.5-10.3-8.5c-3.2,0-9.4,1-9.4,4.7
				c0,6.1,17.1,6.1,28.1,12.3c7.4,4.2,11.3,11.4,11.3,20.9C392.1,94.4,383.3,106.1,363,106.1L363,106.1z M337.5,81
				c2.3,13.8,10.6,20.5,25.5,20.5c8.4,0,15.1-2.2,19.4-6.3c4.6-4.4,5.5-9.9,5.5-13.8c0-7.7-3-13.4-9-16.7c-7.9-4.4-18.7-5.3-25-8.5
				c-3.6-1.9-5.5-4.6-5.5-7.9c0-6.9,7.2-9.4,13.6-9.4c8,0,12.4,3.2,14.1,10.3l9.7-0.5c-1.3-11.3-9.6-17.4-23.6-17.4
				c-16.6,0-22.5,9.7-22.5,17.9c0,17.7,19.8,18.4,31.1,22.6l0,0c2.1,0.8,7.7,2.9,7.7,9.7c0,8.4-7.7,12.3-15.4,12.3
				c-8.8,0-14.3-4.6-16.4-13.6L337.5,81z"/>
		</g>
	</g>
	<g id="S_2_">
		<g>
			<path class="st6" d="M432.1,107.5c-17.4,0-28.6-8.7-30.7-27.4l-0.3-2.4l17.8-1.8l0.4,2.1c1.4,8.4,5.4,12.1,13,12.1
				c4.2,0,11.4-1.6,11.4-7.7c0-2.1-0.8-3.8-5-5.4c-9-3.3-25.5-4.6-32-16.2c-1.8-3.2-2.7-7-2.7-11.3c0-12,8.7-23,27.4-23
				c19.5,0,28.2,10.8,28.7,24.7l0.1,2.4l-18,0.8l-0.3-2.1c-1-6.4-3.8-8.6-10.6-8.6c-3.3,0-9.6,1-9.6,4.8c0,6.2,17.5,6.2,28.8,12.5
				C458,65.3,462,72.7,462,82.4C462,95.6,452.9,107.5,432.1,107.5L432.1,107.5z M406.1,82c2.3,14,10.9,20.8,26.1,20.8
				c8.6,0,15.4-2.2,19.8-6.4c4.7-4.5,5.7-10.1,5.7-14c0-7.9-3.1-13.6-9.2-17c-8-4.5-19.1-5.4-25.5-8.7c-3.7-1.9-5.6-4.6-5.6-8.1
				c0-7.1,7.4-9.6,13.9-9.6c8.1,0,12.7,3.3,14.4,10.5l9.9-0.5c-1.4-11.5-9.9-17.7-24.2-17.7c-17,0-23.1,9.8-23.1,18.3
				c0,18,20.3,18.7,31.8,23l0,0c2.2,0.8,7.9,3,7.9,9.8c0,8.6-7.9,12.5-15.8,12.5c-9,0-14.6-4.6-16.8-13.9L406.1,82z"/>
		</g>
	</g>
	<g>
		<g>
			<path class="st5" d="M183.6,42.7c-1,0.2-1.9,0.6-2.8,1c-0.3,0.2-0.5,0.4-0.7,0.6c-0.2,0.2-0.4,0.5-0.4,0.9c-0.1,0.3-0.1,0.7,0,1
				c0,0.3,0.1,0.6,0.3,0.9c0.1,0.2,0.3,0.3,0.4,0.5c0.3,0.3,0.7,0.5,1.1,0.6c0.2,0,0.4,0.1,0.7,0.1c0.5,0,0.9-0.1,1.3-0.3
				c0,0,0,0,0,0c-0.2,0.1-0.4,0.2-0.6,0.3c0.7-0.3,1.5-0.5,2.2-0.7c0.3-0.1,0.6-0.2,0.9-0.4c0.3-0.2,0.5-0.4,0.6-0.7
				c0.2-0.3,0.3-0.6,0.3-0.9c0.1-0.3,0.1-0.7,0-1c-0.1-0.2-0.2-0.4-0.3-0.6c-0.2-0.4-0.5-0.7-0.9-0.9c-0.2-0.1-0.4-0.2-0.6-0.3
				C184.5,42.6,184,42.6,183.6,42.7L183.6,42.7z"/>
		</g>
	</g>
	<g>
		<g>
			<path class="st5" d="M180.6,51.2c0.1-0.1,0.2-0.1,0.3-0.1c-0.3,0.1-0.4,0.2-0.1,0c0.2-0.1,0.3-0.1,0.5-0.2
				c0.4-0.1,0.8-0.2,1.2-0.3c0.2,0,0.3-0.1,0.5-0.1c0.3,0,0.2,0-0.1,0c0.1,0,0.2,0,0.4,0c0.4,0,0.8,0,1.2-0.1c1,0,1.8-0.3,2.8-0.5
				c0.1,0,0.2,0,0.4-0.1c-0.1,0-0.2,0-0.3,0c0.2-0.1,0.5,0,0.7-0.1c0.4,0,0.8,0,1.3,0c1.3,0,2.6-1.2,2.5-2.5
				c-0.1-1.4-1.1-2.5-2.5-2.5c-1.1,0-2.1,0-3.2,0.2c-0.4,0.1-0.8,0.2-1.1,0.3c-0.1,0-0.2,0.1-0.3,0.1c0.4,0,0.4-0.1,0.1,0
				c-0.2,0-0.4,0-0.7,0c-2.1,0.1-4.1,0.6-6,1.5c-1.2,0.6-1.6,2.4-0.9,3.4C177.9,51.5,179.3,51.8,180.6,51.2L180.6,51.2z"/>
		</g>
	</g>
	<g>
		<g>
			<path class="st5" d="M175.9,46.8c2.7,0.2,5.4,0,8.1-0.5c0.6-0.1,1.2-0.3,1.8-0.4c0.1,0,0.6-0.1,0.7-0.2c-0.2,0.2-0.6-0.8-0.6-0.8
				c-0.6-1.3-0.4-0.3-0.1-0.8c0.1-0.2,0.3-0.1,0.3-0.2c0-0.1-1.2-0.6-1.3-0.6c-0.9-0.6-1.7-1.3-2.7-1.8c-1.2-0.5-2.5-0.7-3.7-1
				c-2.4-0.6-4.7-2.3-7.3-1.2c1,1,2.1,2.1,3.1,3.1c0.1-0.3,0.9-0.5,1.3-0.6c0.9-0.3,1.7-0.4,2.6-0.5c1.4,0,3.6,0.2,4.6,1.3
				c-0.2-0.4-0.4-0.7-0.6-1.1c0,0.1,0.1,0.2,0.1,0.3c0-0.4,0-0.9,0-1.3c0,0,0-0.1,0-0.1c0.3-0.3,0.6-0.6,0.9-0.9
				c-0.3,0.2-0.6,0.3-1,0.3c-0.1,0-0.3,0-0.4,0c0,0-0.1,0-0.1,0c-0.5-0.3-0.5,0.2-0.2,1.6c-0.4,0.2-0.7,0.4-1.1,0.6
				c0.1,0,0.2,0,0.2-0.1c-0.4,0-0.9,0-1.3,0c0.1,0,0.1,0,0.2,0.1c-0.4-0.2-0.7-0.4-1.1-0.6c-0.2-0.2,0-1.7-0.3-1.8
				c0,0-1,0.3-0.4,0.2c-0.4,0.1-0.8,0.1-1.2,0.1c-1.3-0.1-2.6-0.8-3.8-1.1c-1.4-0.4-2.8-0.6-4.2-0.8c-0.8-0.1-1.5-0.2-2.3-0.2
				c-0.3,0-0.6-0.1-0.9-0.1c-0.3,0-1.2-0.3-0.6,0c0.3,0.3,0.6,0.6,0.9,0.9c0-0.1-0.1-0.2-0.1-0.2c0.1,0.4,0.2,0.8,0.3,1.3
				c-0.1,0.7,0.3,0.1,0.5-0.1c0.5-0.3,1-0.6,1.5-0.9c1.1-0.5,2.2-0.9,3.3-1.2c2.3-0.6,4.8-0.7,7.2-0.2c0.6,0.1,1.2,0.3,1.8,0.4
				c0.2,0.1,0.6,0.3,0.8,0.3c0.5,0-0.5-1.7-0.4-1.6c-0.1-0.1,0.3-0.1,0.1-0.1c-0.2-0.1-0.7,0.1-0.9,0.1c-0.7,0-1.5,0-2.2,0
				c-3.1,0-6.1-0.1-9.2-0.3c0.8,1.1,1.6,2.1,2.4,3.2c0.5-1.4,1.7-2.6,3.1-3.1c2.2-0.8,2.5-4.1,0-4.8c-3.1-0.9-6.3-1.4-9.6-1.5
				c-3-0.1-6.1,0.3-8.6,1.9c-2,1.3-1.3,4.7,1.3,4.7c1.9,0,3.8-0.3,5.6-0.8c-1-0.6-2.1-1.2-3.1-1.7c0.3,1.6,0.1,2.6-1.5,3.3
				c-1.9,0.8-4,1-5.9,1.8c0.8,1.4,1.7,2.9,2.5,4.3c2.7-1.2,5.3-2.7,7.7-4.3c1.7-1.1,1.5-3.2,0-4.3c-2.6-2-6.4-3.1-9.7-3.4
				c-3.2-0.3-6.6,0.3-9.2,2.2c-1,0.7-1.6,1.9-1,3.1c0.5,1.1,1.8,1.9,2.9,1.4c1.5-0.5,3.1-1,4.6-1.3c0.7-0.1,1.4-0.3,2-0.3
				c0.4,0,0.8-0.1,1.1-0.1c0.2,0,0.3,0,0.5,0c0.7,0,0.4-0.2-0.9-0.7c-0.1-0.4-0.2-0.8-0.3-1.3c0,0.1,0,0.1,0,0.2
				c0.1-0.4,0.2-0.8,0.3-1.3c-0.2,0.3-1.7,1.2-2.3,1.7c-0.9,0.7-1.8,1.4-2.8,2c-1.8,1.4-3.7,2.7-5.5,4.1c-1,0.7-1.6,1.9-1,3.1
				c0.5,1.1,1.7,1.8,2.9,1.4c2.3-0.7,4.6-1.4,6.9-2.1c-0.6-1.5-1.3-3-1.9-4.6c-2.4,1.3-4.8,2.8-6.5,5.1c-0.9,1.2-1.6,2.8-1,4.3
				c0.7,1.7,2.8,2.4,4.3,1.4c1.6-1,1.6-3.3,0-4.3c-1.5-1-3.1-1.8-4.8-2.4c-0.7-0.3-1.5-0.5-2.3-0.7c-0.1,0-0.7-0.3-0.9-0.3
				c-0.4,0,0.3-0.4-0.1,0.2c-0.4,0.6-0.2,0.4,0.2,0.3c0.3-0.1,0.7-0.3,1-0.5c0.8-0.4,1.6-0.8,2.4-1.2c1.8-0.9,3.5-1.7,5.3-2.6
				c-1-1.3-2-2.6-3-3.9c-1.2,1.4-2.7,2.2-4.3,3.2c-1.8,1.1-3.4,2.4-4.5,4.2c-1.1,1.7,0.7,4.5,2.8,3.7c2.5-1,4.9-2,7.4-3
				c1.2-0.5,2.1-1.7,1.7-3.1c-0.3-1.2-1.8-2.2-3.1-1.7c-2.8,1.1-5.4,2.8-7.4,5c-1.6,1.8-0.1,4.9,2.4,4.2c2.6-0.7,5.1-1.8,7.4-3.2
				c2.8-1.7,0.2-6-2.5-4.3c-2,1.2-4,2.1-6.3,2.7c0.8,1.4,1.6,2.8,2.4,4.2c1.4-1.6,3.2-3,5.2-3.8c-0.4-1.6-0.9-3.2-1.3-4.8
				c-2.5,1-4.9,2-7.4,3c0.9,1.2,1.9,2.4,2.8,3.7c0.8-1.3,2.3-2.1,3.6-2.9c1.6-1,3.2-2,4.4-3.4c1.8-2.2-0.4-5.2-3-3.9
				c-2.3,1.1-4.7,2.3-7,3.4c-2.1,1-4.4,2.1-4.3,4.8c0,2.5,2.1,4.1,4.3,4.9c2.2,0.8,4.2,1.4,6.2,2.7c0-1.4,0-2.9,0-4.3
				c-0.1,0-0.1,0.1-0.2,0.1c0.4-0.1,0.8-0.2,1.3-0.3c-0.1,0-0.2,0-0.2,0c0.4,0.1,0.8,0.2,1.3,0.3c-0.1,0-0.1-0.1-0.2-0.1
				c0.3,0.3,0.6,0.6,0.9,0.9c0-0.1-0.1-0.1-0.1-0.2c0.1,0.4,0.2,0.8,0.3,1.3c-0.2,0.4-0.2,0.4-0.1,0.1c0.1-0.2,0.2-0.3,0.3-0.5
				c0.1-0.1,0.2-0.3,0.3-0.4c0.4-0.5,0.9-1,1.4-1.3c1-0.8,2.2-1.4,3.3-2c2.5-1.4,0.8-5.4-1.9-4.6c-2.3,0.7-4.6,1.4-6.9,2.1
				c0.6,1.5,1.3,3,1.9,4.6c2.2-1.7,4.5-3.3,6.7-5c1.1-0.8,2.2-1.7,3.4-2.5c1.2-0.9,2.6-1.7,2.7-3.4c0-3-3.1-3.4-5.4-3.1
				c-2.7,0.3-5.4,0.9-8,1.8c0.6,1.5,1.3,3,1.9,4.6c1.9-1.4,4.2-1.9,6.5-1.6c2.4,0.3,5.3,1.3,7.2,2.8c0-1.4,0-2.9,0-4.3
				c-2.5,1.6-5.1,3-7.7,4.3c-1.2,0.6-1.5,2.3-0.9,3.4c0.7,1.3,2.2,1.4,3.4,0.9c1.2-0.5,2.6-0.7,3.9-1c1.2-0.4,2.4-0.9,3.5-1.7
				c2.6-2,2.8-5,2.3-8c-0.2-1.3-1.9-2.1-3.1-1.7c-1.4,0.4-2.8,0.6-4.3,0.6c0.4,1.6,0.8,3.1,1.3,4.7c2-1.3,4.3-1.3,6.6-1.2
				c2.6,0.1,5.2,0.5,7.8,1.3c0-1.6,0-3.2,0-4.8c-3.2,1.1-5.4,3.4-6.6,6.6c-0.6,1.7,0.9,3,2.4,3.2c4.1,0.4,8.5,0.7,12.6,0.2
				c2.1-0.2,3.9-1.4,4.4-3.5c0.5-2.4-1.2-4-3.2-4.7c-3.6-1.2-7.5-1.4-11.3-0.6c-3.3,0.6-7.7,2.2-9.5,5.2c-1.2,2-0.3,4.5,2.2,4.9
				c1.9,0.3,3.9,0.3,5.8,0.6c3.7,0.7,7.6,3,11.3,0.9c1.6-0.9,2.8-2.7,2.3-4.6c-0.6-2.2-3.4-2.9-5.1-1.2c-1.6,1.6-0.9,4.2,0.6,5.5
				c1.6,1.4,3.9,1.6,5.9,1c2.4-0.7,3.9-3.5,1.9-5.5c-1.4-1.4-3.7-2.1-5.6-2.4c-3.8-0.6-10,0.1-11.2,4.5c-0.5,1.7,1.2,3.8,3.1,3.1
				c1.2-0.5,2.7,0.6,3.8,1c1.4,0.5,3,0.5,4.3,1.2c1.4,0.9,2.6,2,4.3,2.4c1.7,0.4,3.5,0,4.7-1.2c2.6-2.8,0.5-7-3.2-6.8
				c-1.6,0.1-3.1,0.7-4.7,0.9c-1.8,0.2-3.7,0.2-5.6,0.1c-1.3-0.1-2.5,1.2-2.5,2.5C173.4,45.7,174.5,46.7,175.9,46.8L175.9,46.8z"/>
		</g>
	</g>
	<g>
		<g>
			<path class="st5" d="M130.6,54.6c3.5,0.7,7,1.4,10.5,2.1c1.5,0.3,3.3-0.7,3.2-2.4c-0.1-1.2,0.6-2.1,1.2-3.2
				c0.8-1.3,1.5-2.6,1.8-4.2c0.3-1.8-1.1-3.7-3.1-3.1c-4.5,1.4-8.9,2.9-13.4,4.4c1,1,2.1,2.1,3.1,3.1c0.6-1.5,1.4-2.9,2.4-4.1
				c-1.4-0.6-2.8-1.2-4.3-1.8c-0.1,1.1-0.6,2-1,3c-0.6,1.2-1.1,2.5-1.3,3.8c-0.3,2.1,1.6,4,3.7,2.8c2.9-1.6,5.8-2.9,8.9-4.1
				c-0.9-1.2-1.9-2.4-2.8-3.7c-1,2.2-3.4,3.2-5.4,4.5c-2.7,1.8-5.2,3.8-7.7,5.8c-2.2,1.8,0.7,5.6,3,3.9c3.6-2.5,7.7-4.1,12.1-4.4
				c-0.8-1.1-1.6-2.1-2.4-3.2c-0.2,0.6-1.2,1-1.7,1.3c-1,0.6-2,1.1-3.1,1.6c-2.1,0.9-4.2,1.6-6.3,2.3c-3,1-1.8,5.6,1.3,4.8
				c4.6-1.2,9.1-2.4,13.7-3.5c-0.6-1.5-1.3-3-1.9-4.6c-4.5,2.4-9.1,4.8-14,6.3c-3.1,0.9-1.8,5.6,1.3,4.8c4.3-1.1,8.6-1.7,13-2.4
				c-0.4-1.6-0.9-3.2-1.3-4.8c-4.4,1.6-8.7,3.3-12.9,5.4c-2.2,1-1.2,4.9,1.3,4.7c3.8-0.4,7.7-0.8,11.5-1.3c-0.4-1.6-0.8-3.1-1.3-4.7
				c-3.7,1.8-7.3,3.6-11,5.3c-2.3,1.1-1.1,4.7,1.3,4.7c4.5,0,9.1-0.1,13.5-1.2c2.7-0.6,2.2-5.2-0.7-4.9c-2.6,0.3-4.8,1.3-6.9,2.7
				c-2,1.3-3.8,2.8-6,3.9c-2.6,1.2-0.8,5.4,1.9,4.6c2-0.6,3.9-1.2,5.9-1.7c1.5-0.4,3.6-1.3,5.1-0.8c-0.2-1.5-0.4-3-0.6-4.6
				c-3.4,1.7-6.9,3.3-10.4,4.8c0.6,1.5,1.3,3,1.9,4.6c1.5-0.8,3.1-1.4,4.8-1.8c1.2-0.3,3.4-0.8,4.5-0.5c-0.4-0.2-0.7-0.4-1.1-0.6
				c-0.6-0.5-0.1-0.7-0.4,0.1c-0.1,0.2-0.2,0.4-0.3,0.6c-0.4,0.6-0.9,1-1.5,1.3c-1.4,0.7-3,0.9-4.6,1c-1.1,0.1-1.1-0.3-1,1.1
				c0.1,1.4-0.2,1.2,0.8,0.9c0.8-0.2,1.7-0.4,2.5-0.5c0.9-0.1,1.9-0.1,2.8-0.1c0.5,0,0.9,0.1,1.4,0.1c0.2,0,0.5,0.1,0.7,0.1
				c0.5,0.2,0.6,0.1,0.2-0.1c-0.2-0.4-0.4-0.7-0.6-1.1c0.8,1.9-1.9,3.2-3.4,3.5c-0.5,0.1-0.9,0.1-1.4,0.1c-0.6,0,0-0.2-0.1,0.2
				c-0.2,0.3-0.3,0.6-0.5,0.8c0-0.1,0.1-0.1,0.2-0.1c-0.1,0,0.4-0.1,0.4-0.1c0.8-0.1,1.6-0.1,2.4-0.2c1.2-0.1,2.6-0.3,3.8,0.1
				c0.4,0.1,0.7,0.2,1,0.5c0.4,0.3,0.2,0.5,0.4,0.2c-0.5,0.8-1.7,1.3-2.6,1.6c-1.2,0.4-2.4,0.5-3.7,0.3c-1.3-0.2-2.5,1.3-2.5,2.5
				c0,1.5,1.2,2.3,2.5,2.5c3.6,0.4,8-0.9,10.2-3.9c2.8-3.8-1.1-8-4.9-8.7c-2.1-0.3-4.3-0.1-6.5,0.1c-1.9,0.2-3.8,0.6-4.8,2.4
				c-0.9,1.7-0.4,4,1,5.3c1.6,1.5,3.9,1.6,5.9,1.2c3.8-0.7,7.2-3.5,7.5-7.5c0.2-2.3-1-4.1-3.3-4.6c-2-0.4-4.1-0.5-6.2-0.4
				c-1.9,0.2-4.1,0.4-5.8,1.4c-1.9,1.1-2.5,3.4-1.3,5.3c1.3,2,3.8,1.9,5.9,1.7c2-0.2,3.9-0.6,5.7-1.4c1.9-0.9,3.4-2.6,4.2-4.6
				c0.8-2.1,0.6-5.1-1.9-5.9c-2-0.7-4.7-0.1-6.7,0.4c-2.3,0.5-4.4,1.3-6.5,2.4c-2.5,1.3-0.7,5.7,1.9,4.6c3.9-1.7,7.8-3.4,11.6-5.3
				c2-1,1.3-3.9-0.6-4.6c-2.3-0.8-4.7,0-6.9,0.5c-2.3,0.6-4.6,1.2-6.8,1.9c0.6,1.5,1.3,3,1.9,4.6c1.9-0.9,3.6-2.2,5.4-3.4
				c1.5-1,3.2-2.3,5-2.5c-0.2-1.6-0.4-3.3-0.7-4.9c-4,1-8.1,1-12.2,1c0.4,1.6,0.8,3.1,1.3,4.7c3.7-1.8,7.3-3.6,11-5.3
				c2.2-1,1.2-4.9-1.3-4.7c-3.8,0.4-7.7,0.8-11.5,1.3c0.4,1.6,0.8,3.1,1.3,4.7c3.8-1.8,7.7-3.5,11.7-4.9c3.1-1.1,1.8-5.3-1.3-4.8
				c-4.4,0.7-8.7,1.3-13,2.4c0.4,1.6,0.9,3.2,1.3,4.8c5.3-1.6,10.3-4.2,15.2-6.8c2.5-1.3,0.8-5.3-1.9-4.6c-4.6,1.2-9.1,2.4-13.7,3.5
				c0.4,1.6,0.9,3.2,1.3,4.8c2.8-0.9,5.6-1.9,8.3-3.2c2.5-1.2,5.4-2.7,6.3-5.5c0.5-1.5-0.8-3.3-2.4-3.2c-5.3,0.4-10.3,2.1-14.7,5.1
				c1,1.3,2,2.6,3,3.9c2.5-2,5-4.1,7.8-5.8c2.3-1.5,4.9-3,6-5.6c0.4-0.9,0.5-1.9-0.2-2.8c-0.6-0.7-1.7-1.2-2.6-0.9
				c-3.5,1.3-6.9,2.8-10.1,4.6c1.2,0.9,2.4,1.9,3.7,2.8c0.4-2.9,2.4-5.1,2.6-8.1c0.1-2.1-2.9-3.4-4.3-1.8c-1.6,1.9-2.8,4-3.7,6.3
				c-0.7,1.8,1.4,3.7,3.1,3.1c4.4-1.5,8.9-3,13.4-4.4c-1-1-2.1-2.1-3.1-3.1c-0.3,1.5-1.1,2.6-1.8,3.9c-0.8,1.5-1.5,3.1-1.4,4.8
				c1.1-0.8,2.1-1.6,3.2-2.4c-3.5-0.7-7-1.4-10.5-2.1c-1.3-0.3-2.7,0.4-3.1,1.7C128.5,52.7,129.2,54.3,130.6,54.6L130.6,54.6z"/>
		</g>
	</g>
	<g>
		<g>
			<path class="st5" d="M146.1,91c0.9,0.7,1.8,1.3,2.7,2c0.5,0.3,0.9,0.7,1.4,1c0.2,0.1,0.4,0.3,0.5,0.4c0.1,0.1,0.5,0.4,0.2,0.1
				c0.4,0.3,0.8,0.6,1.1,1c0.1,0.1,0.2,0.2,0.3,0.3c0.2,0.2,0.2,0.2,0.1,0.1c-0.1-0.1-0.1-0.1,0,0.1c0.1,0.1,0.1,0.2,0.2,0.4
				c-0.1-0.3-0.1-0.3,0,0c0-0.1,0-0.2,0-0.3c0,0.3,0,0.3,0-0.1c0.2-0.3,0.2-0.4,0-0.1c0.3-0.4,0.1,0-0.1,0c0.3-0.2,0.3-0.2,0.1-0.1
				c-0.2,0.1-0.2,0.1-0.1,0c0.3-0.1-0.4,0.1-0.5,0.1c0.6,0-0.1,0-0.2,0c-0.2,0-0.5,0-0.7,0c-0.1,0-0.2,0-0.3,0c0.3,0,0.3,0,0.1,0
				c-0.5-0.1-0.9-0.2-1.4-0.4c-0.2-0.1-0.4-0.1-0.6-0.2c-0.3-0.1-0.3-0.1,0,0c-0.1,0-0.2-0.1-0.3-0.1c-1.7-0.8-3.3-2-4.9-3.1
				c-0.2,1.5-0.4,3-0.6,4.6c0.4-0.1,0.8-0.3,1.1-0.3c0.2,0,0.5-0.1,0.1,0c0.2,0,0.4,0,0.7,0c0.2,0,0.4,0,0.7,0c0.5,0-0.2-0.1,0.1,0
				c0.4,0.1,0.8,0.2,1.1,0.3c0.2,0.1,0.3,0.1,0.5,0.2c0.2,0.1,0.4,0.2,0.1,0c0.4,0.2,0.8,0.4,1.2,0.6c0.7,0.4,1.4,0.8,2.1,1.2
				c1.1,0.7,2.8,0.3,3.4-0.9c0.6-1.2,0.3-2.7-0.9-3.4c-1.7-1-3.4-2-5.2-2.5c-2-0.6-4.2-0.6-6.2,0.2c-1,0.4-1.6,1-1.8,2.1
				c-0.1,1.1,0.4,1.9,1.2,2.5c3.1,2.3,6.6,4.6,10.6,4.5c2.4,0,4.9-1.2,5.5-3.7c0.6-2.5-1.1-4.6-2.9-6.1c-1.9-1.5-3.9-2.9-5.9-4.3
				c-1.1-0.8-2.8-0.2-3.4,0.9C144.5,88.8,144.9,90.1,146.1,91L146.1,91z"/>
		</g>
	</g>
	<g>
		<g>
			<path class="st5" d="M151.4,95.4c0.6-0.1,1.1-0.1,1.7-0.1c0.2,0,0.5,0,0.7,0c0,0,0.8,0.1,0.3,0c1,0.2,2.1,0.4,3.1,0.7
				c1,0.2,2,0.5,3,0.7c0.2,0,0.4,0.1,0.6,0.1c0.1,0,0.3,0.1,0.4,0.1c-0.3-0.1-0.3-0.1-0.2-0.1c0.1,0.1,0.7,0.5,0.2,0.1
				c0.1,0.1,0.3,0.3,0.4,0.4c0.4,0.4-0.2-0.4,0.1,0.1c0.1,0.1,0.1,0.2,0.2,0.3c0-0.1-0.1-0.2-0.1-0.2c0,0.1,0.2,0.8,0.2,0.4
				c0-0.2,0-0.2,0,0.1c0-0.4,0.1-0.7,0.4-1c0.3-0.2,0.3-0.2,0.2-0.1c-0.1,0-0.1,0.1-0.2,0.1c0.3-0.1,0.4-0.2,0.1-0.1
				c-0.1,0-0.1,0-0.2,0.1c-0.5,0.2-1.1,0.3-1.6,0.4c-0.1,0-0.8,0.1-0.3,0.1c-0.2,0-0.5,0.1-0.7,0.1c-0.6,0-1.1,0.1-1.7,0
				c-0.2,0-0.5,0-0.7,0c-0.1,0-0.7-0.1-0.2,0c-0.2-0.1-0.4-0.1-0.6-0.1c-0.3-0.1-0.3-0.1,0,0c-0.1-0.1-0.3-0.1-0.4-0.2
				c0,1.4,0,2.9,0,4.3c0.4-0.2,0.7-0.4,1.1-0.5c0.2-0.1,0.4-0.2,0.7-0.3c0,0,0.6-0.3,0.4-0.2c-0.2,0.1,0.4-0.2,0.4-0.2
				c0.2-0.1,0.4-0.1,0.6-0.2c0.4-0.2,0.8-0.3,1.3-0.4c1.2-0.4,2-1.5,1.8-2.7c-0.2-1.1-1.2-2.3-2.5-2.2c-2.5,0.2-4.9,0.2-7.4,0
				c0.6,1.4,1.2,2.8,1.8,4.3c-0.1,0.1-0.4,0.2-0.5,0.3c0.4-0.2-0.1,0.1-0.1,0c0,0,0.9-0.1,0.9-0.1c0.7,0,1.4-0.1,2.2-0.1
				c1.4-0.1,2.8-0.2,4.2-0.2c1.3-0.1,2.6-1.1,2.5-2.5c-0.1-1.3-1.1-2.6-2.5-2.5c-1.6,0.1-3.3,0.2-4.9,0.3c-1.7,0.1-3.9-0.1-5.2,1.3
				c-0.7,0.8-0.9,1.8-0.5,2.7c0.4,1,1.3,1.4,2.3,1.5c2.5,0.2,4.9,0.3,7.4,0c-0.2-1.6-0.4-3.3-0.7-4.9c-1.9,0.6-3.8,1.4-5.5,2.3
				c-1.7,0.9-1.6,3.4,0,4.3c1.9,1.1,4.3,1.2,6.5,1c2.2-0.2,5.2-0.6,6.4-2.6c1.3-2.1,0.1-5-1.6-6.5c-1.7-1.5-3.8-1.7-5.9-2.2
				c-2.4-0.6-4.9-1.2-7.5-0.9c-1.3,0.2-2.6,1-2.5,2.5C149,94.1,150,95.6,151.4,95.4L151.4,95.4z"/>
		</g>
	</g>
	<g>
		<g>
			<path class="st5" d="M161.8,94.7c0.1,0.1,0.2,0.1,0.3,0.2c-0.2-0.1-0.3-0.3-0.5-0.4c0.7,0.6,1.3,1.3,1.9,2
				c-0.1-0.2-0.3-0.3-0.4-0.5c0.9,1.1,1.6,2.4,2.2,3.7c-0.1-0.2-0.2-0.4-0.3-0.6c0.1,0.2,0.1,0.3,0.1,0.5c0-0.2-0.1-0.4-0.1-0.7
				c0,0.1,0,0.2,0,0.2c0-0.2,0.1-0.4,0.1-0.7c0,0.1,0,0.1,0,0.2c0.1-0.2,0.2-0.4,0.3-0.6c0,0.1-0.1,0.1-0.1,0.2
				c0.1-0.2,0.3-0.3,0.4-0.5c0,0.1-0.1,0.1-0.1,0.1c0.2-0.1,0.3-0.3,0.5-0.4c0,0-0.1,0.1-0.2,0.1c0.2-0.1,0.4-0.2,0.6-0.3
				c-0.1,0-0.1,0-0.2,0c0.2,0,0.4-0.1,0.7-0.1c0,0-0.1,0-0.1,0c0.2,0,0.4,0.1,0.7,0.1c-0.1,0-0.1,0-0.2-0.1c-0.6-0.2-1.4,0-1.9,0.3
				c-0.5,0.3-1,0.9-1.1,1.5c-0.1,0.6-0.1,1.4,0.3,1.9c0.4,0.6,0.9,0.9,1.5,1.1c1,0.4,2.3,0,3-0.7c0.7-0.7,1-1.6,1-2.5
				c-0.1-1.3-0.8-2.5-1.4-3.6c-0.6-1-1.2-1.8-1.9-2.7c-0.7-0.9-1.4-1.7-2.4-2.3c-1.1-0.7-2.8-0.3-3.4,0.9
				C160.3,92.5,160.6,94,161.8,94.7L161.8,94.7z"/>
		</g>
	</g>
	<g>
		<g>
			<path class="st5" d="M166.1,95.1c0,0-0.4,0-0.2,0c0.1,0,0.2,0,0.3,0c0.2,0,0.5,0,0.7,0c0.2,0,0.4,0,0.6,0c0.3,0-0.2,0-0.2,0
				c0.1,0,0.3,0.1,0.4,0.1c0.9,0.2,1.8,0.5,2.7,0.8c0.4,0.1,0.8,0.3,1.2,0.5c0.2,0.1,0.4,0.2,0.7,0.3c0.1,0,0.3,0.1,0,0
				c-0.3-0.1,0.1,0,0.1,0.1c0.3,0.2,0.7,0.3,1,0.5c0.1,0.1,0.4,0.3,0.1,0.1c-0.2-0.2,0,0,0,0c0.1,0.1,0.5,0.5,0.3,0.3
				c-0.2-0.3,0.1,0.2,0.1,0.2c0,0.1,0.2,0.4,0.1,0.1c-0.1-0.3,0-0.1,0,0c0,0.1,0.1,0.4,0.1,0.5c0,0,0-0.5,0-0.2c0,0.1,0,0.2,0,0.3
				c0,0.3,0.1-0.2,0.1-0.3c0.1-0.1,0.2-0.3,0.3-0.4c0,0,0.4-0.3,0.2-0.2c-0.2,0.1,0.2-0.1,0.2-0.1c-0.3,0-0.7,0.2-1.1,0.3
				c-0.1,0-0.2,0-0.2,0c-0.3,0.1,0.3,0,0.3,0c-0.1,0-0.4,0-0.5,0c0,0,0.6,0,0.3,0c-0.1,0-0.4-0.2,0,0c0.2,0.1,0.3,0.1,0.4,0.3
				c-0.2-0.2,0,0.1,0.1,0.1c-0.2-0.3,0.1,0.4,0,0c0,0,0,0.5,0,0.3c0-0.1,0-0.2,0-0.2c0,0,0-0.3,0-0.3c0,0-0.1,0.5,0,0.3
				c0-0.2,0.1-0.4,0.1-0.6c0-0.1,0.1-0.4,0,0c-0.1,0.2-0.1,0.2,0,0.1c0.1-0.2,0.1-0.1-0.1,0.2c-0.1,0.1-0.3,0.2-0.5,0.3
				c-0.2,0.1-0.2,0.1-0.1,0.1c0.2-0.1,0.1-0.1-0.4,0c-0.2,0-0.3,0-0.5,0c-0.3-1.1-0.6-2.2-0.9-3.3c0.1-0.1,0.4-0.3,0.1-0.1
				c0.1,0,0.4-0.1,0.2-0.1c-0.6,0,0,0.1,0,0c0,0-0.3,0-0.3,0c-0.3,0,0.4,0.1,0.1,0c-0.3-0.1,0.2,0.1,0.2,0.1c0,0-0.2-0.2-0.3-0.2
				c0,0,0.4,0.3,0.2,0.1c-0.2-0.2,0.3,0.5,0.1,0.1c0-0.1-0.2-0.3,0,0c0.1,0.2,0.1,0.2,0.1,0.1c-0.1-0.5-0.2-0.1-0.2,1.3
				c-0.3,0.3-0.6,0.6-0.9,0.9c-1.3,0.5-2.2,0.1-2.9-1.2c0-0.4,0-0.9,0-1.3c0.4-1,1.3-1.3,2.7-1c0.3,0.2,0.5,0.4,0.6,0.7
				c0.1,0.1,0.1,0.3,0.1,0.5c-0.1,0.4-0.1,0.4,0,0.2c0.4-1.2-0.5-2.8-1.7-3.1c-1.4-0.3-2.6,0.4-3.1,1.7c-0.5,1.4-0.1,3.1,1.1,4
				c1.5,1.1,3.6,0.9,4.6-0.7c1-1.5,0.4-3.6-1.3-4.3c-1.6-0.7-3.6,0.1-4,1.9c-0.6,2.8,2,5.1,4.6,5.2c1.2,0,2.5-0.4,3.4-1.3
				c1.3-1.3,1.2-3.4-0.2-4.5c-1.1-0.8-2.6-0.8-3.8-0.1c-1,0.7-1.7,1.8-1.9,3c-0.2,1.3-0.2,2.4,0.3,3.6c0.5,1.1,1.5,1.9,2.6,2.1
				c1.9,0.5,4.7-0.2,5.9-1.7c1.5-2,0.7-4.9-0.7-6.7c-0.7-0.8-1.6-1.5-2.6-1.9c-1-0.5-2.1-0.9-3.2-1.3c-1-0.4-1.9-0.7-3-0.8
				c-1.4-0.2-2.6-0.2-4.1-0.1c-0.6,0.1-1.2,0.7-1.5,1.1c-0.3,0.5-0.4,1.3-0.3,1.9c0.2,0.6,0.6,1.2,1.1,1.5
				C164.8,95.2,165.4,95.2,166.1,95.1L166.1,95.1z"/>
		</g>
	</g>
	<g>
		<g>
			<path class="st5" d="M171.6,93c1.2-0.4,2.6-0.8,3.9-0.6c0.8,0.1,1.5,0.5,1.7,1c-0.1-0.3,0.2,0.7,0.1,0.4c0-0.2,0.1,0.4,0,0
				c0,0.1-0.1,0.1-0.1,0.2c-0.1,0.1-0.2,0.2-0.3,0.3c0.1-0.1,0.1-0.1,0,0c-0.5,0.3-0.5,0.3-1.1,0.4c-0.3,0.1-0.5,0.1-0.8,0.2
				c-0.1,0-0.3,0-0.4,0.1c0.1,0,0.1,0,0.2-0.1c0.4,0.2,0.7,0.4,1.1,0.6c0.1,0.1,0.1,0.2,0.1,0.2c-0.1-0.2-0.1-0.4-0.2-0.6
				c0,0.1,0-0.7,0-0.6c0.1-0.5,0.4-0.9,0.7-1.3c1.1-1.2,2.2-2.3,3.1-3.7c1.8-2.7,3-5.9,4.1-9c-1.6-0.2-3.3-0.4-4.9-0.7
				c0.7,6.4-4,11.3-8,15.5c-1.2,1.2-0.8,3,0.5,3.9c1.6,1.1,3.3,0.1,4.7-0.6c1.1-0.6,2.3-1.2,3.3-1.9c2.3-1.5,4.2-3.5,5.6-5.9
				c1.3-2.2,2.2-4.6,2.9-7c0.4-1.3,1.1-2.9,0.8-4.2c-0.5-2-2.4-2.3-4.1-2.8c0,1.6,0,3.2,0,4.8c0.8-0.3,1.3-0.3,2.2,0.1
				c0.5,0.2,1.6,0.7,1.8,1.1c-0.1-0.4-0.2-0.8-0.3-1.3c0-0.1,0-0.1,0-0.2c0.2-0.4,0.4-0.7,0.6-1.1c-0.3,0.3,0.1,0-0.3,0.3
				c-0.3,0.2-0.5,0.4-0.8,0.5c-0.6,0.4-1.2,0.9-1.8,1.4c-1,0.8-1.9,1.7-2.7,2.7c-1.7,2-3.2,4.2-4.3,6.7c-0.5,1.1-0.4,2.4,0.6,3.2
				c1,0.8,2.4,0.7,3.3-0.2c1.2-1.2,2.4-2.3,3.6-3.5c0.6-0.5,1.1-1.1,1.7-1.6c0.5-0.5,1.2-1.3,1.6-1.6c-0.4,0.1-0.8,0.2-1.3,0.3
				c0.1,0,0.1,0,0.2,0c-0.8-0.6-1.6-1.2-2.4-1.8c0,0,0,0.1,0,0.1c0.2-0.8,0.4-1.6,0.6-2.4c0,0,0,0.1-0.1,0.1c1-0.1,2-0.3,3-0.4
				c0,0,0,0-0.1,0c-1.2-0.6-2.7-0.3-3.4,0.9c-0.7,1.1-0.3,2.8,0.9,3.4c0,0,0,0,0.1,0c0.9,0.5,2.3,0.5,3-0.4c0.7-0.8,1-1.6,0.7-2.6
				c-0.3-1.1-1.3-1.8-2.4-1.8c-1.3,0-2.1,0.8-2.9,1.6c-0.7,0.7-1.4,1.3-2.1,2c-1.4,1.4-2.9,2.8-4.3,4.1c1.3,1,2.6,2,3.9,3
				c1.7-3.8,4.3-7.1,7.7-9.5c1.2-0.8,2.2-1.8,2.1-3.3c-0.1-1.6-1.4-2.6-2.6-3.4c-2.1-1.4-4.9-2.2-7.4-1.3c-2.3,0.8-2.5,4,0,4.8
				c0.7,0.2,1.4,0.4,2.1,0.7c-0.4-0.2-0.7-0.4-1.1-0.6c0.1,0.1,0.1,0.1,0.2,0.2c-0.2-0.4-0.4-0.7-0.6-1.1c0,0.1,0,0.2,0.1,0.3
				c0-0.4,0-0.9,0-1.3c-0.6,3.2-1.8,6.6-3.6,9.3c-0.8,1.2-1.8,2.4-3.1,3.2c-0.8,0.6-1.7,1-2.5,1.5c-0.4,0.2-0.8,0.4-1.2,0.6
				c-0.2,0.1-0.4,0.2-0.6,0.3c-0.3,0.2-0.1,0,0,0c0.4,0.1,0.8,0.2,1.3,0.3c-0.1,0-0.1-0.1-0.2-0.1c0.2,1.3,0.3,2.6,0.5,3.9
				c4.9-5.1,10.4-11.4,9.5-19.1c-0.1-1.2-0.8-2.3-2.2-2.5c-1.3-0.2-2.3,0.6-2.7,1.8c-1,2.8-2.1,5.6-3.8,8.1c-0.9,1.3-2.1,2.3-3,3.5
				c-1.1,1.5-1.4,3.3-1.2,5.1c0.3,2,1.3,4,3.6,4.1c1.5,0,3.1-0.5,4.5-1.1c3.1-1.5,4.2-5.4,2.2-8.3c-2.6-3.7-7.1-3.4-11-2.3
				C167.2,89.1,168.5,93.9,171.6,93L171.6,93z"/>
		</g>
	</g>
	<g>
		<g>
			<path class="st5" d="M208.2,34.4c2.5,0,5,0,7.4,0.3c-0.2,0-0.4-0.1-0.7-0.1c0.2,0,0.5,0.1,0.7,0.1c0.4,0.1-0.2-0.1-0.2-0.1
				c0,0,0.3,0.2,0.3,0.2c0.2-1.5,0.4-3,0.6-4.6c-1.1,0.4-2.3,0.8-3.4,1.2c-1.1,0.4-2.2,0.9-3.3,1.1c0.2,0,0.4-0.1,0.7-0.1
				c-0.3,0-0.5,0-0.8,0c-0.6-0.1-1.4,0.3-1.8,0.7c-0.4,0.4-0.8,1.1-0.7,1.8c0,0.6,0.2,1.3,0.7,1.8c0.5,0.5,1.1,0.7,1.8,0.7
				c1.5,0.2,3-0.5,4.3-1c1.3-0.5,2.6-0.9,3.9-1.4c1-0.3,1.7-1,1.8-2.1c0.1-1-0.4-1.9-1.2-2.5c-0.8-0.6-1.8-0.7-2.8-0.8
				c-0.8-0.1-1.6-0.1-2.4-0.2c-1.6-0.1-3.3-0.1-4.9-0.1c-1.3,0-2.6,1.1-2.5,2.5C205.8,33.2,206.8,34.4,208.2,34.4L208.2,34.4z"/>
		</g>
	</g>
	<g>
		<g>
			<path class="st5" d="M214.3,34.4c-0.5,1.8-1.7,3.3-2.7,4.9c-1.1,1.7-1.9,3.6-2.4,5.6c-0.9,4-0.7,8.3-1.6,12.3
				c-0.7,3.1,4.1,4.5,4.8,1.3c0.9-4,0.6-8.3,1.6-12.3c0.9-3.9,3.9-6.7,5.1-10.5C220.1,32.6,215.3,31.3,214.3,34.4L214.3,34.4z"/>
		</g>
	</g>
	<g>
		<g>
			<path class="st5" d="M207.5,38.2c0.8,3.5,0.7,7.1-0.2,10.6c1.6,0.2,3.3,0.4,4.9,0.7c-0.2-4.5,0.9-8.7,3.2-12.5
				c-1.6-0.4-3.1-0.8-4.7-1.3c-0.1,5.9-0.2,11.9-0.3,17.8c0,2.8,4.3,3.5,4.9,0.7c1-4.4,2.1-8.8,3.5-13.1c-1.6-0.2-3.3-0.4-4.9-0.7
				c-0.8,5.7-1.5,11.3-2.3,17c1.7,0,3.3,0,5,0c-0.2-2.5,0-5,0.8-7.4c-1.6-0.2-3.3-0.4-4.9-0.7c0,5.6-0.4,11.3-1.2,16.8
				c-0.2,1.3,0.3,2.7,1.7,3.1c1.2,0.3,2.9-0.4,3.1-1.7c0.9-6,1.4-12.1,1.4-18.2c0-2.8-4.1-3.4-4.9-0.7c-0.8,2.8-1.2,5.8-0.9,8.8
				c0.1,1.3,1.1,2.5,2.5,2.5c1.5,0,2.3-1.2,2.5-2.5c0.8-5.7,1.5-11.3,2.3-17c0.2-1.2-1.1-2.3-2.2-2.5c-1.2-0.1-2.4,0.6-2.7,1.8
				c-1.3,4.3-2.5,8.7-3.5,13.1c1.6,0.2,3.3,0.4,4.9,0.7c0.1-5.9,0.2-11.9,0.3-17.8c0-2.5-3.4-3.3-4.7-1.3c-2.8,4.5-4.1,9.8-3.9,15.1
				c0.1,2.7,4.2,3.5,4.9,0.7c1.2-4.4,1.2-8.9,0.2-13.3C211.6,33.7,206.8,35,207.5,38.2L207.5,38.2z"/>
		</g>
	</g>
	<g>
		<g>
			<path class="st5" d="M206,54.5c-0.4,7-0.3,13.9,0.5,20.8c0.1,1.2,0.9,2.3,2.2,2.5c1.2,0.1,2.4-0.6,2.7-1.8
				c1.8-6.5,0.9-13.3,2.7-19.8c-1.6,0-3.2,0-4.8,0c1.6,4.1,2.7,8.4,3,12.8c0.1,1.3,1.1,2.5,2.5,2.5c1.3,0,2.6-1.1,2.5-2.5
				c-0.2-3.9,0.1-7.6,1-11.4c-1.6,0-3.2,0-4.8,0c0.7,3.2-0.8,6.5-2,9.5c-1.3,3.2-2.3,6.4-2.9,9.8c-1.2,6.9-1.5,14.1-2,21.1
				c-0.1,1.3,1.2,2.5,2.5,2.5c1.4,0,2.4-1.1,2.5-2.5c0.5-7,0.7-14.2,2.1-21.1c0.7-3.4,1.9-6.5,3.1-9.7c1.4-3.5,2.3-7.1,1.4-10.8
				c-0.5-2.4-4.2-2.3-4.8,0c-1.1,4.1-1.5,8.4-1.2,12.7c1.7,0,3.3,0,5,0c-0.4-4.9-1.4-9.6-3.2-14.1c-0.9-2.2-4.1-2.6-4.8,0
				c-1.8,6.5-1,13.3-2.7,19.8c1.6,0.2,3.3,0.4,4.9,0.7c-0.7-6.9-0.9-13.9-0.5-20.8C211.2,51.3,206.2,51.3,206,54.5L206,54.5z"/>
		</g>
	</g>
	<g>
		<g>
			<path class="st5" d="M213,70.1c1,1.7,0.6,4.3,0.6,6.1c0,2.3,0,4.6,0.1,7c0,2.3,0,4.6,0,6.9c0,1.1,0,2.2-0.1,3.3
				c-0.1,0.8,0.1,2.5-0.4,3.1c0.5-0.4,1-0.8,1.5-1.1c-0.5,0.2-2.2,0-3.1-0.2c-1.3-0.2-2.7,0.4-3.1,1.7c-0.3,1.2,0.4,2.8,1.7,3.1
				c1.6,0.3,3.2,0.5,4.8,0.4c2-0.2,2.9-1.7,3.1-3.5c0.5-3.3,0.5-6.6,0.5-9.9c0-3.3,0-6.6,0-10c0-3.1,0.3-6.6-1.3-9.4
				C215.7,64.7,211.4,67.3,213,70.1L213,70.1z"/>
		</g>
	</g>
	<g>
		<g>
			<path class="st5" d="M210.9,74c0,3.7,0,7.3,0,11c0,1.8,0,3.6,0,5.4c0,1.6,0.2,3.3-0.3,4.8c-0.4,1.3,0.5,2.7,1.7,3.1
				c1.4,0.4,2.7-0.5,3.1-1.7c0.6-1.7,0.4-3.5,0.4-5.3c0-1.9,0-3.9,0-5.8c0-3.8,0-7.6,0-11.4C215.9,70.8,210.9,70.8,210.9,74
				L210.9,74z"/>
		</g>
	</g>
	<g>
		<g>
			<path class="st5" d="M215.8,94.5c4.4,2.5,9.8,2,14.7,2.2c5.4,0.1,10.8,0.3,16.2,0.4c3.2,0.1,3.2-4.9,0-5
				c-5.1-0.1-10.1-0.3-15.2-0.4c-2.4-0.1-4.8-0.1-7.2-0.2c-2.1-0.1-4.1-0.3-5.9-1.3C215.5,88.7,212.9,93,215.8,94.5L215.8,94.5z"/>
		</g>
	</g>
	<g>
		<g>
			<path class="st5" d="M225.5,93.8c3.4,1.1,6.8,1.9,10.3,2c3.6,0.1,7.2-0.3,10.8-0.8c1.3-0.2,2.1-1.9,1.7-3.1
				c-0.4-1.4-1.7-1.9-3.1-1.7c-3.1,0.4-6.3,0.7-9.5,0.6c-3.1-0.1-6-0.9-9-1.9C223.8,88.1,222.5,92.9,225.5,93.8L225.5,93.8z"/>
		</g>
	</g>
	<g>
		<g>
			<path class="st5" d="M244.9,100.4c3.2,0,3.2-5,0-5C241.7,95.4,241.7,100.4,244.9,100.4L244.9,100.4z"/>
		</g>
	</g>
	<g>
		<g>
			<path class="st5" d="M241.3,100.7c3.2,0,3.2-5,0-5C238.1,95.7,238.1,100.7,241.3,100.7L241.3,100.7z"/>
		</g>
	</g>
	<g>
		<g>
			<path class="st5" d="M238.6,101.1c3.2,0,3.2-5,0-5C235.4,96.1,235.4,101.1,238.6,101.1L238.6,101.1z"/>
		</g>
	</g>
	<g>
		<g>
			<path class="st5" d="M234,100.6c3.2,0,3.2-5,0-5C230.8,95.6,230.8,100.6,234,100.6L234,100.6z"/>
		</g>
	</g>
	<g>
		<g>
			<path class="st5" d="M235.9,100.7c3.2,0,3.2-5,0-5C232.7,95.7,232.7,100.7,235.9,100.7L235.9,100.7z"/>
		</g>
	</g>
	<g>
		<g>
			<path class="st5" d="M227.4,100c3.2,0,3.2-5,0-5C224.2,95,224.2,100,227.4,100L227.4,100z"/>
		</g>
	</g>
	<g>
		<g>
			<path class="st5" d="M230.8,100.6c3.2,0,3.2-5,0-5C227.6,95.6,227.6,100.6,230.8,100.6L230.8,100.6z"/>
		</g>
	</g>
	<g>
		<g>
			<path class="st5" d="M217.2,100.3c3.2,0,3.2-5,0-5C214,95.3,214,100.3,217.2,100.3L217.2,100.3z"/>
		</g>
	</g>
	<g>
		<g>
			<path class="st5" d="M217.8,99c3.2,0,3.2-5,0-5C214.5,94,214.5,99,217.8,99L217.8,99z"/>
		</g>
	</g>
	<g>
		<g>
			<path class="st5" d="M222,101.1c3.2,0,3.2-5,0-5C218.8,96.1,218.8,101.1,222,101.1L222,101.1z"/>
		</g>
	</g>
	<g>
		<g>
			<path class="st5" d="M220.2,101.1c3.2,0,3.2-5,0-5C217,96.1,217,101.1,220.2,101.1L220.2,101.1z"/>
		</g>
	</g>
	<g>
		<g>
			<path class="st5" d="M220.2,100.1c3.2,0,3.2-5,0-5C217,95.1,217,100.1,220.2,100.1L220.2,100.1z"/>
		</g>
	</g>
	<g>
		<g>
			<path class="st5" d="M223.2,100.1c3.2,0,3.2-5,0-5C220,95.1,220,100.1,223.2,100.1L223.2,100.1z"/>
		</g>
	</g>
	<g>
		<g>
			<path class="st5" d="M224.6,101.7c3.2,0,3.2-5,0-5C221.4,96.7,221.4,101.7,224.6,101.7L224.6,101.7z"/>
		</g>
	</g>
	<g>
		<g>
			<path class="st5" d="M265.9,102c3.2,0,3.2-5,0-5C262.7,97,262.7,102,265.9,102L265.9,102z"/>
		</g>
	</g>
	<g>
		<g>
			<path class="st5" d="M269.6,100.5c3.2,0,3.2-5,0-5C266.4,95.5,266.4,100.5,269.6,100.5L269.6,100.5z"/>
		</g>
	</g>
	<g>
		<g>
			<path class="st5" d="M272.7,101c3.2,0,3.2-5,0-5C269.5,96,269.5,101,272.7,101L272.7,101z"/>
		</g>
	</g>
	<g>
		<g>
			<path class="st5" d="M267.5,97.8c3.2,0,3.2-5,0-5C264.3,92.8,264.3,97.8,267.5,97.8L267.5,97.8z"/>
		</g>
	</g>
	<g>
		<g>
			<path class="st5" d="M272.9,97.8c3.2,0,3.2-5,0-5C269.7,92.8,269.7,97.8,272.9,97.8L272.9,97.8z"/>
		</g>
	</g>
	<g>
		<g>
			<path class="st5" d="M268.9,97.3c3.2,0,3.2-5,0-5C265.7,92.3,265.7,97.3,268.9,97.3L268.9,97.3z"/>
		</g>
	</g>
	<g>
		<g>
			<path class="st5" d="M270,93.6c3.2,0,3.2-5,0-5C266.8,88.6,266.8,93.6,270,93.6L270,93.6z"/>
		</g>
	</g>
	<g>
		<g>
			<path class="st5" d="M268.7,94.5c3.2,0,3.2-5,0-5C265.5,89.5,265.5,94.5,268.7,94.5L268.7,94.5z"/>
		</g>
	</g>
	<g>
		<g>
			<path class="st5" d="M273.1,94.3c3.2,0,3.2-5,0-5C269.8,89.3,269.8,94.3,273.1,94.3L273.1,94.3z"/>
		</g>
	</g>
	<g>
		<g>
			<path class="st5" d="M275.5,95.3c3.2,0,3.2-5,0-5C272.3,90.3,272.3,95.3,275.5,95.3L275.5,95.3z"/>
		</g>
	</g>
	<g>
		<g>
			<path class="st5" d="M271.6,95.1c3.2,0,3.2-5,0-5C268.4,90.1,268.4,95.1,271.6,95.1L271.6,95.1z"/>
		</g>
	</g>
	<g>
		<g>
			<path class="st5" d="M269.6,89.3c3.2,0,3.2-5,0-5C266.4,84.3,266.4,89.3,269.6,89.3L269.6,89.3z"/>
		</g>
	</g>
	<g>
		<g>
			<path class="st5" d="M269.5,90.6c3.2,0,3.2-5,0-5C266.3,85.6,266.3,90.6,269.5,90.6L269.5,90.6z"/>
		</g>
	</g>
	<g>
		<g>
			<path class="st5" d="M272.2,90.4c3.2,0,3.2-5,0-5C269,85.4,269,90.4,272.2,90.4L272.2,90.4z"/>
		</g>
	</g>
	<g>
		<g>
			<path class="st5" d="M274.6,91c3.2,0,3.2-5,0-5C271.4,86,271.4,91,274.6,91L274.6,91z"/>
		</g>
	</g>
	<g>
		<g>
			<path class="st5" d="M275.2,91.1c3.2,0,3.2-5,0-5C272,86.1,272,91.1,275.2,91.1L275.2,91.1z"/>
		</g>
	</g>
	<g>
		<g>
			<path class="st5" d="M276.9,88.4c3.2,0,3.2-5,0-5C273.7,83.4,273.7,88.4,276.9,88.4L276.9,88.4z"/>
		</g>
	</g>
	<g>
		<g>
			<path class="st5" d="M273.5,87.6c3.2,0,3.2-5,0-5C270.3,82.6,270.3,87.6,273.5,87.6L273.5,87.6z"/>
		</g>
	</g>
	<g>
		<g>
			<path class="st5" d="M272.1,87.1c3.2,0,3.2-5,0-5C268.9,82.1,268.9,87.1,272.1,87.1L272.1,87.1z"/>
		</g>
	</g>
	<g>
		<g>
			<path class="st5" d="M276.1,87.6c3.2,0,3.2-5,0-5C272.9,82.6,272.9,87.6,276.1,87.6L276.1,87.6z"/>
		</g>
	</g>
	<g>
		<g>
			<path class="st5" d="M277.4,86.1c3.2,0,3.2-5,0-5C274.2,81.1,274.2,86.1,277.4,86.1L277.4,86.1z"/>
		</g>
	</g>
	<g>
		<g>
			<path class="st5" d="M275.4,84.5c3.2-5.9,5.5-12.4,6.5-19c0.2-1.3-0.3-2.7-1.7-3.1c-1.2-0.3-2.9,0.4-3.1,1.7
				c-1,6.3-3,12.3-6,17.9c-0.6,1.2-0.3,2.7,0.9,3.4C273.1,86.1,274.8,85.7,275.4,84.5L275.4,84.5z"/>
		</g>
	</g>
	<g>
		<g>
			<path class="st5" d="M272.3,85.7c4.2-6.4,4.3-14.6,8.4-21c1.7-2.7-2.6-5.2-4.3-2.5c-4.1,6.5-4.2,14.6-8.4,21
				c-0.7,1.1-0.2,2.8,0.9,3.4C270.1,87.3,271.5,86.8,272.3,85.7L272.3,85.7z"/>
		</g>
	</g>
	<g>
		<g>
			<path class="st5" d="M281.1,61.9c-1,1.5-1.8,3.2-2.1,5c-0.4,1.8-0.6,3.5-1.2,5.2c-1.3,3.6-2.6,7-3.4,10.8
				c-0.3,1.3,0.4,2.7,1.7,3.1c1.2,0.3,2.8-0.4,3.1-1.7c0.7-3.6,1.9-7,3.3-10.4c1.2-3.1,1.1-6.5,3-9.4c0.8-1.1,0.2-2.8-0.9-3.4
				C283.3,60.3,281.9,60.8,281.1,61.9L281.1,61.9z"/>
		</g>
	</g>
	<g>
		<g>
			<path class="st5" d="M279.4,63.6c2.5-4.8,5.2-9.5,7.2-14.5c2-4.8,3.4-9.8,4.4-14.9c0.7-3.1-4.1-4.5-4.8-1.3
				c-1.1,4.9-2.4,9.8-4.3,14.5c-1.9,4.7-4.5,9.2-6.9,13.7C273.6,64,277.9,66.5,279.4,63.6L279.4,63.6z"/>
		</g>
	</g>
	<g>
		<g>
			<path class="st5" d="M282.3,67.3c2.8-6.9,5.1-13.9,6.8-21.1c0.7-3.1-4.1-4.5-4.8-1.3c-1.7,7.2-4,14.3-6.8,21.1
				c-0.5,1.2,0.6,2.7,1.7,3.1C280.6,69.5,281.8,68.6,282.3,67.3L282.3,67.3z"/>
		</g>
	</g>
	<g>
		<g>
			<path class="st5" d="M284.9,66.3c1.2-3.8,2.4-7.7,3.1-11.6c0.6-3.7,0.6-7.4,2.1-10.9c0.5-1.2-0.6-2.7-1.7-3.1
				c-1.4-0.4-2.6,0.5-3.1,1.7c-1.4,3.5-1.4,7.3-2.1,10.9c-0.7,4-1.9,7.8-3.1,11.6C279.1,68,283.9,69.3,284.9,66.3L284.9,66.3z"/>
		</g>
	</g>
	<g>
		<g>
			<path class="st5" d="M281.1,58.4c3.5-8.3,7-16.7,10.3-25.1c0.5-1.3-0.5-2.7-1.7-3.1c-1.4-0.4-2.6,0.5-3.1,1.7
				c-3.2,8-6.5,16-9.8,23.9c-0.5,1.2-0.4,2.7,0.9,3.4C278.7,59.9,280.6,59.6,281.1,58.4L281.1,58.4z"/>
		</g>
	</g>
	<g>
		<g>
			<path class="st5" d="M286,35.2c3.2,0,3.2-5,0-5C282.8,30.2,282.8,35.2,286,35.2L286,35.2z"/>
		</g>
	</g>
	<g>
		<g>
			<path class="st5" d="M291.3,47.2c0-0.6,0-1.2,0.1-1.8c0-0.2,0-0.3,0.1-0.5c0,0.2,0,0.2,0-0.1c0-0.3,0.1-0.5,0.1-0.8
				c0.2-1.3,0.5-2.5,0.8-3.8c0.6-2.6,1.2-5.2,1.1-7.8c0-1.3-1.1-2.6-2.5-2.5c-1.3,0.1-2.5,1.1-2.5,2.5c0.1,2.5-0.4,4.4-1,7
				c-0.6,2.6-1.2,5.2-1.2,7.8c0,1.3,1.2,2.6,2.5,2.5C290.2,49.6,291.3,48.6,291.3,47.2L291.3,47.2z"/>
		</g>
	</g>
	<g>
		<g>
			<path class="st5" d="M294.4,34.3c3.2,0,3.2-5,0-5C291.1,29.3,291.1,34.3,294.4,34.3L294.4,34.3z"/>
		</g>
	</g>
	<g>
		<g>
			<path class="st5" d="M295.4,36.3c3.2,0,3.2-5,0-5C292.2,31.3,292.2,36.3,295.4,36.3L295.4,36.3z"/>
		</g>
	</g>
	<g>
		<g>
			<path class="st5" d="M292.5,43.6c3.2,0,3.2-5,0-5C289.3,38.6,289.2,43.6,292.5,43.6L292.5,43.6z"/>
		</g>
	</g>
	<g>
		<g>
			<path class="st5" d="M294.2,38.9c3.2,0,3.2-5,0-5C291,33.9,291,38.9,294.2,38.9L294.2,38.9z"/>
		</g>
	</g>
	<g>
		<g>
			<path class="st5" d="M295.9,39.2c3.2,0,3.2-5,0-5C292.7,34.2,292.7,39.2,295.9,39.2L295.9,39.2z"/>
		</g>
	</g>
	<g>
		<g>
			<path class="st5" d="M293.5,45.1c3.2,0,3.2-5,0-5C290.3,40.1,290.3,45.1,293.5,45.1L293.5,45.1z"/>
		</g>
	</g>
	<g>
		<g>
			<path class="st5" d="M295.1,40.5c3.2,0,3.2-5,0-5C291.8,35.5,291.8,40.5,295.1,40.5L295.1,40.5z"/>
		</g>
	</g>
	<g>
		<g>
			<path class="st5" d="M296.5,40.5c3.2,0,3.2-5,0-5C293.3,35.5,293.2,40.5,296.5,40.5L296.5,40.5z"/>
		</g>
	</g>
	<g>
		<g>
			<path class="st5" d="M292.2,46.9c1.6-0.5,3.2-1.1,4.7-1.8c0.3-0.2,0.7-0.3,0.9-0.5c0.8-0.5,1.4-1.3,1.5-2.3c0.1-0.9,0-1.8,0-2.6
				c0-0.6-0.3-1.3-0.7-1.8c-0.4-0.4-1.1-0.8-1.8-0.7c-1.3,0.1-2.5,1.1-2.5,2.5c0,0.8,0.1,1.5,0,2.3c0-0.2,0.1-0.4,0.1-0.7
				c0,0.1,0,0.1,0,0.2c0.1-0.2,0.2-0.4,0.3-0.6c0,0.1,0,0.1-0.1,0.1c0.1-0.2,0.3-0.3,0.4-0.5c0,0-0.1,0.1-0.1,0.1
				c0.2-0.1,0.3-0.3,0.5-0.4c-0.3,0.2-0.7,0.4-1.1,0.6c-0.4,0.2-0.8,0.4-1.2,0.5c0.2-0.1,0.4-0.2,0.6-0.3c-0.9,0.4-1.9,0.7-2.9,1
				c-0.6,0.2-1.2,0.6-1.5,1.1c-0.3,0.5-0.4,1.3-0.3,1.9c0.2,0.6,0.6,1.2,1.1,1.5C290.9,47,291.6,47.1,292.2,46.9L292.2,46.9z"/>
		</g>
	</g>
	<g>
		<g>
			<path class="st5" d="M295.7,41.9c-0.6,9.8,1.5,19.5,5.9,28.2c1.5,2.9,5.8,0.3,4.3-2.5c-4-7.9-5.8-16.8-5.3-25.7
				C300.9,38.7,295.9,38.7,295.7,41.9L295.7,41.9z"/>
		</g>
	</g>
	<g>
		<g>
			<path class="st5" d="M304.1,67.4c-1.8-7.4-3.2-15.1-6.8-21.9c-1.5-2.8-5.8-0.3-4.3,2.5c1.7,3.1,2.7,6.5,3.6,9.8
				c1,3.6,1.8,7.2,2.7,10.8C300,71.9,304.9,70.5,304.1,67.4L304.1,67.4z"/>
		</g>
	</g>
	<g>
		<g>
			<path class="st5" d="M295.8,46c3.1,6.7,3.6,14.2,6.4,21c0.5,1.2,1.7,2.1,3.1,1.7c1.2-0.3,2.3-1.8,1.7-3.1
				c-3-7.2-3.6-15.1-6.9-22.2c-0.6-1.2-2.3-1.5-3.4-0.9C295.4,43.3,295.2,44.7,295.8,46L295.8,46z"/>
		</g>
	</g>
	<g>
		<g>
			<path class="st5" d="M299.1,54.9c3.2,5.4,2.8,12.2,5,18.1c0.5,1.3,1.7,2.1,3.1,1.7c1.2-0.3,2.2-1.8,1.7-3.1
				c-2.4-6.3-2-13.4-5.5-19.3C301.8,49.7,297.5,52.2,299.1,54.9L299.1,54.9z"/>
		</g>
	</g>
	<g>
		<g>
			<path class="st5" d="M298.4,63.7c0.8,2.1,1.6,4.3,2.3,6.5c0.7,2.2,1.5,4.3,1.9,6.5c0.2,1.3,1.9,2.1,3.1,1.7
				c1.4-0.4,2-1.7,1.7-3.1c-0.4-2.2-1.2-4.4-1.9-6.5c-0.7-2.2-1.5-4.3-2.3-6.5c-0.5-1.2-1.7-2.2-3.1-1.7
				C299,61,297.9,62.4,298.4,63.7L298.4,63.7z"/>
		</g>
	</g>
	<g>
		<g>
			<path class="st5" d="M298.1,65.2c-0.1,1.2,0.3,2.4,0.6,3.6c0.3,1,0.6,2.1,0.9,3.2c0.6,2.2,1,4.4,1.4,6.6c0.2,1.3,1.9,2.1,3.1,1.7
				c1.4-0.5,2-1.7,1.7-3.1c-0.3-2.1-0.8-4.2-1.3-6.3c-0.3-1-0.5-2-0.8-3.1c-0.1-0.5-0.3-1-0.4-1.5c-0.1-0.2-0.1-0.4-0.2-0.7
				c0.1,0.6,0-0.3,0.1-0.4c0.1-1.3-1.3-2.6-2.5-2.5C299.2,62.7,298.3,63.8,298.1,65.2L298.1,65.2z"/>
		</g>
	</g>
	<g>
		<g>
			<path class="st5" d="M300.3,62.4c1.6,4.8,3.3,9.6,4.9,14.4c0.4,1.2,1.7,2.2,3.1,1.7c1.2-0.4,2.2-1.8,1.7-3.1
				c-1.7-4.8-3.3-9.6-4.9-14.4c-0.4-1.2-1.7-2.2-3.1-1.7C300.8,59.7,299.8,61.1,300.3,62.4L300.3,62.4z"/>
		</g>
	</g>
	<g>
		<g>
			<path class="st5" d="M303.5,67.8c0.4,0.8,0.9,1.7,1.2,2.5c0,0.1,0.3,0.7,0,0.1c0.1,0.2,0.2,0.5,0.3,0.7c0.2,0.4,0.3,0.8,0.4,1.2
				c0.6,1.7,1,3.5,1.3,5.2c0.2,1.3,1.9,2.1,3.1,1.7c1.4-0.5,2-1.7,1.7-3.1c-0.6-3.8-2-7.5-3.8-11c-0.6-1.2-2.3-1.6-3.4-0.9
				C303.3,65.2,302.9,66.6,303.5,67.8L303.5,67.8z"/>
		</g>
	</g>
	<g>
		<g>
			<path class="st5" d="M278.1,80.5c8,0.4,15.7-2,23.7-2c3.2,0,3.2-5,0-5c-8,0-15.7,2.4-23.7,2C274.9,75.3,274.9,80.3,278.1,80.5
				L278.1,80.5z"/>
		</g>
	</g>
	<g>
		<g>
			<path class="st5" d="M278.7,82.6c8.3,1.1,16.6,1,24.9-0.3c1.3-0.2,2.1-1.9,1.7-3.1c-0.4-1.4-1.7-1.9-3.1-1.7
				c-7.8,1.2-15.7,1.1-23.5,0.1c-1.3-0.2-2.5,1.3-2.5,2.5C276.2,81.6,277.4,82.4,278.7,82.6L278.7,82.6z"/>
		</g>
	</g>
	<g>
		<g>
			<path class="st5" d="M280,84.7c4.2-0.9,8.6-0.4,12.8-0.8c4.3-0.4,8.8-1,13.1-0.3c1.3,0.2,2.7-0.3,3.1-1.7
				c0.3-1.2-0.4-2.9-1.7-3.1c-4.8-0.8-9.6-0.3-14.4,0.2c-4.7,0.4-9.5-0.1-14.1,1C275.5,80.5,276.8,85.4,280,84.7L280,84.7z"/>
		</g>
	</g>
	<g>
		<g>
			<path class="st5" d="M293.4,84.9c6.2-0.4,12.5,0.2,18.7,0.6c1.3,0.1,2.5-1.2,2.5-2.5c0-1.4-1.1-2.4-2.5-2.5
				c-6.2-0.3-12.5-1-18.7-0.6c-1.3,0.1-2.5,1.1-2.5,2.5C290.9,83.6,292.1,84.9,293.4,84.9L293.4,84.9z"/>
		</g>
	</g>
	<g>
		<g>
			<path class="st5" d="M309.6,82c3.2,0,3.2-5,0-5C306.4,77,306.4,82,309.6,82L309.6,82z"/>
		</g>
	</g>
	<g>
		<g>
			<path class="st5" d="M305.5,81.4c3.2,0,3.2-5,0-5C302.3,76.4,302.3,81.4,305.5,81.4L305.5,81.4z"/>
		</g>
	</g>
	<g>
		<g>
			<path class="st5" d="M303.7,83.4c-0.1,1.8,0.9,3.3,1.3,4.7c0.5,1.5,0.8,3,1.1,4.5c0.6,3.1,1.2,6.2,2.7,9.1
				c0.7,1.2,2.3,1.6,3.4,0.9c1.2-0.7,1.6-2.2,0.9-3.4c-0.6-1.2-1-2.2-1.3-3.6c-0.4-1.4-0.6-2.9-0.9-4.3c-0.3-1.4-0.5-2.8-0.9-4.1
				c-0.2-0.8-0.5-1.6-0.9-2.3c-0.2-0.6-0.5-1-0.4-1.5c0.1-1.3-1.2-2.5-2.5-2.5C304.7,80.9,303.8,82,303.7,83.4L303.7,83.4z"/>
		</g>
	</g>
	<g>
		<g>
			<path class="st5" d="M308.5,87.5C308.8,87.7,308.8,87.7,308.5,87.5C308.4,87.3,308.4,87.3,308.5,87.5c0.1,0.2,0.2,0.4,0.3,0.6
				c0.1,0.3,0.3,0.6,0.4,0.9c-0.1-0.4,0.2,0.4,0.2,0.4c0.5,1.2,0.9,2.3,1.2,3.5c0.3,1.2,0.6,2.4,0.9,3.6c0.3,1.4,0.3,2,0.5,3.3
				c0.1,1.3,1.1,2.6,2.5,2.5c1.3-0.1,2.6-1.1,2.5-2.5c-0.3-3-0.8-5.9-1.7-8.8c-0.5-1.5-1-2.9-1.6-4.4c-0.6-1.4-1.2-2.8-2.7-3.6
				c-1.1-0.6-2.8-0.3-3.4,0.9C307,85.3,307.3,86.8,308.5,87.5L308.5,87.5z"/>
		</g>
	</g>
	<g>
		<g>
			<path class="st5" d="M309.7,86.5C309.6,86.3,309.6,86.4,309.7,86.5c0.1,0.2,0.2,0.4,0.2,0.6c0.1,0.3,0.2,0.6,0.3,0.9
				c0.2,0.6,0.4,1.3,0.6,1.9c0.4,1.3,0.7,2.6,1.1,4c0.8,2.8,2,5.5,3.8,7.8c0.8,1,2.7,0.9,3.5,0c1-1.1,0.9-2.4,0-3.5
				c0.3,0.3-0.2-0.3-0.3-0.4c-0.2-0.3-0.4-0.6-0.5-0.9c-0.2-0.3-0.3-0.5-0.4-0.8c-0.1-0.1-0.1-0.3-0.2-0.4c0,0-0.2-0.5-0.1-0.2
				c0.1,0.2-0.1-0.2-0.1-0.2c-0.1-0.2-0.1-0.4-0.2-0.5c-0.1-0.3-0.2-0.6-0.3-0.9c-0.2-0.6-0.4-1.3-0.6-1.9c-0.8-2.7-1.4-5.3-2.5-7.9
				c-0.5-1.2-2.4-1.6-3.4-0.9C309.3,83.9,309.1,85.3,309.7,86.5L309.7,86.5z"/>
		</g>
	</g>
	<g>
		<g>
			<path class="st5" d="M351.2,39c-0.1,0-0.1,0-0.2,0c0.2,0,0.4,0.1,0.7,0.1c-0.3-0.1-0.6-0.1-0.9-0.3c0.2,0.1,0.4,0.2,0.6,0.3
				c-0.9-0.4-1.7-1.1-2.6-1.6c-1.4-0.7-3-1.2-4.5-0.6c-0.6,0.2-1.1,0.5-1.5,1.1c-0.3,0.5-0.4,1.3-0.3,1.9c0.2,0.6,0.6,1.2,1.1,1.5
				c0.6,0.3,1.3,0.5,1.9,0.3c0.2-0.1,0.4-0.1,0.6-0.2c-0.2,0-0.4,0.1-0.7,0.1c0.2,0,0.4,0,0.6,0c-0.2,0-0.4-0.1-0.7-0.1
				c0.4,0.1,0.7,0.2,1,0.3c-0.2-0.1-0.4-0.2-0.6-0.3c0.8,0.3,1.4,0.8,2.1,1.3c0.5,0.3,1,0.5,1.5,0.8c0.6,0.2,1.2,0.3,1.8,0.4
				c0.6,0.1,1.4-0.3,1.8-0.7c0.4-0.4,0.8-1.1,0.7-1.8c0-0.6-0.2-1.3-0.7-1.8C352.4,39.2,351.9,39,351.2,39L351.2,39z"/>
		</g>
	</g>
	<g>
		<g>
			<path class="st5" d="M343.4,56.5c3.2,0,3.2-5,0-5C340.2,51.5,340.2,56.5,343.4,56.5L343.4,56.5z"/>
		</g>
	</g>
	<g>
		<g>
			<path class="st5" d="M344.6,48.7c3.2,0,3.2-5,0-5C341.4,43.7,341.4,48.7,344.6,48.7L344.6,48.7z"/>
		</g>
	</g>
	<g>
		<g>
			<path class="st5" d="M345.9,45c3.2,0,3.2-5,0-5C342.7,40,342.7,45,345.9,45L345.9,45z"/>
		</g>
	</g>
	<g>
		<g>
			<path class="st5" d="M340.8,43.5c2.6,1.4,5.3,2.6,8.1,3.5c1.2,0.4,2.8-0.5,3.1-1.7c0.3-1.4-0.4-2.6-1.7-3.1
				c-1.1-0.4-2.3-0.8-3.4-1.3c0.2,0.1,0.4,0.2,0.6,0.3c-1.4-0.6-2.8-1.3-4.1-2c-1.1-0.6-2.8-0.3-3.4,0.9
				C339.3,41.3,339.6,42.9,340.8,43.5L340.8,43.5z"/>
		</g>
	</g>
	<g>
		<g>
			<path class="st5" d="M339.3,46.6c1.4,0.7,2.8,1.3,4.2,1.8c1.3,0.4,2.6,0.6,3.9,1.1c-0.2-0.1-0.4-0.2-0.6-0.3
				c0.2,0.1,0.3,0.2,0.5,0.2c1.2,0.6,2.8,0.3,3.4-0.9c0.6-1.1,0.3-2.8-0.9-3.4c-1.2-0.6-2.4-0.9-3.7-1.2c-1.1-0.3-2.2-0.6-3.3-1.1
				c0.2,0.1,0.4,0.2,0.6,0.3c-0.6-0.3-1.2-0.5-1.7-0.8c-1.2-0.6-2.8-0.3-3.4,0.9C337.8,44.4,338,46,339.3,46.6L339.3,46.6z"/>
		</g>
	</g>
	<g>
		<g>
			<path class="st5" d="M340.1,51.6c0.2,0,0.4,0,0.6,0C340.5,51.5,340.3,51.5,340.1,51.6c0.6,0,1.3,0.2,1.9,0.4
				c0.7,0.2,1.3,0.4,2,0.6c1.3,0.4,2.6,0.8,4,1.2c1.2,0.4,2.8-0.5,3.1-1.7c0.3-1.4-0.4-2.7-1.7-3.1c-1.5-0.5-2.9-0.9-4.4-1.4
				c-0.7-0.2-1.4-0.4-2.1-0.6c-0.9-0.3-1.8-0.5-2.8-0.5c-0.7,0.1-1.3,0.2-1.8,0.7c-0.4,0.4-0.8,1.1-0.7,1.8
				C337.6,50.3,338.7,51.7,340.1,51.6L340.1,51.6z"/>
		</g>
	</g>
	<g>
		<g>
			<path class="st5" d="M340,54.4c1.9,0.7,3.9,1.2,5.9,1.7c0.9,0.2,1.7,0.4,2.6,0.6c0.2,0.1,0.5,0.1,0.7,0.2c0.1,0,0.2,0.1,0.3,0.1
				c-0.1,0-0.2-0.1-0.3-0.1c0.4,0.1,0.9,0.5,1.3,0.7c1.1,0.8,2.8,0.2,3.4-0.9c0.7-1.3,0.2-2.6-0.9-3.4c-1.6-1.2-3.7-1.6-5.6-2
				c-2.1-0.5-4.1-1-6.1-1.7c-1.2-0.4-2.8,0.5-3.1,1.7C337.9,52.8,338.7,54,340,54.4L340,54.4z"/>
		</g>
	</g>
	<g>
		<g>
			<path class="st5" d="M340.8,58.5c1.3-0.1,2,0,3.2,0.4c1.3,0.3,2.5,0.7,3.8,0.9c2.6,0.4,5.3,0.6,8,0.4c1.3-0.1,2.6-1.1,2.5-2.5
				c-0.1-1.3-1.1-2.6-2.5-2.5c-1.2,0.1-2.5,0.1-3.7,0.1c-1.4-0.1-2.3-0.2-3.5-0.4c-2.6-0.5-5.1-1.5-7.8-1.3
				c-1.3,0.1-2.6,1.1-2.5,2.5C338.3,57.3,339.4,58.6,340.8,58.5L340.8,58.5z"/>
		</g>
	</g>
	<g>
		<g>
			<path class="st5" d="M343.8,62.9c2.7-0.5,5.8,0.2,8.6,0.4c2.9,0.2,5.9-0.1,8.5-1.5c1.2-0.7,1.6-2.3,0.9-3.4
				c-0.7-1.2-2.2-1.6-3.4-0.9c-0.6,0.4-0.7,0.4-1.4,0.6c-0.3,0.1-0.7,0.2-1,0.2c-0.5,0.1,0.1,0-0.4,0.1c-1.3,0.1-2.6,0-3.9-0.1
				c-3.1-0.3-6-0.8-9.1-0.2c-1.3,0.3-2.1,1.8-1.7,3.1C341.1,62.6,342.5,63.2,343.8,62.9L343.8,62.9z"/>
		</g>
	</g>
	<g>
		<g>
			<path class="st5" d="M347.5,65.1c4.6,0.3,9.2,0.1,13.8-0.6c1-0.2,2.1-0.3,3-0.6c1.5-0.6,2.6-1.9,2.4-3.6c-0.2-1.4-1.2-2.6-2.6-3
				c-1.4-0.4-2.8,0.1-4,0.8c-1.2,0.7-1.6,2.3-0.9,3.4c0.7,1.2,2.3,1.6,3.4,0.9c0.2-0.1,0.6-0.2,0.7-0.3c-0.6,0.1-1.1-0.1-1.3-0.6
				c0.3-0.8,0.6-1.6,0.8-2.3c-0.3,0-0.8,0.2-1.1,0.2c-0.3,0.1-0.6,0.1-0.9,0.2c-1.5,0.3-2.7,0.4-4.2,0.5c-3,0.3-6,0.3-9,0.1
				c-1.3-0.1-2.6,1.2-2.5,2.5C345,64.1,346.1,65,347.5,65.1L347.5,65.1z"/>
		</g>
	</g>
	<g>
		<g>
			<path class="st5" d="M350.4,67.3c6.4,1.4,12.7,3,19,4.8c3.1,0.9,4.4-3.9,1.3-4.8c-6.3-1.8-12.6-3.4-19-4.8
				c-1.3-0.3-2.7,0.4-3.1,1.7C348.3,65.5,349.1,67,350.4,67.3L350.4,67.3z"/>
		</g>
	</g>
	<g>
		<g>
			<path class="st5" d="M362.2,62.4c3.9,0.8,7.7,2.1,11.1,4.1c1.6,1,3.2,2,4.7,3.3c1.4,1.2,3.1,2.5,3.8,4.2c0.5,1.2,1.7,2.1,3.1,1.7
				c1.2-0.3,2.3-1.8,1.7-3.1c-1.8-4.4-6.1-7.7-10.1-10.1c-4-2.4-8.4-4.1-12.9-5c-1.3-0.3-2.7,0.4-3.1,1.7
				C360.2,60.6,360.9,62.1,362.2,62.4L362.2,62.4z"/>
		</g>
	</g>
	<g>
		<path class="st6" d="M361.7,63.6c3.6-0.1,7.1,1.5,10.2,3.3c3.1,1.8,6,4,9.3,5.5"/>
		<g>
			<path class="st5" d="M361.7,66.1c6.9,0,12.3,5.8,18.2,8.5c1.2,0.6,2.7,0.3,3.4-0.9c0.6-1.1,0.3-2.9-0.9-3.4
				c-6.9-3.2-12.6-9.2-20.8-9.2C358.5,61.1,358.5,66.1,361.7,66.1L361.7,66.1z"/>
		</g>
	</g>
	<g>
		<g>
			<path class="st5" d="M367.9,71.3c0.8,0.5,1.6,0.8,2.4,1.2c0.8,0.4,1.6,0.8,2.4,1.3c0.4,0.2,0.7,0.5,1.1,0.7
				c0.2,0.1,0.3,0.2,0.5,0.4c0.1,0.1,0.2,0.2,0.3,0.2c0.3,0.2,0,0-0.1-0.1c0.7,0.6,1.4,1.1,2,1.8c0.9,0.9,2.6,1,3.5,0
				c0.9-1,1-2.6,0-3.5c-1.4-1.4-3-2.6-4.7-3.7c-0.8-0.5-1.6-0.9-2.4-1.3c-0.9-0.4-1.8-0.8-2.6-1.2c-1.1-0.7-2.8-0.3-3.4,0.9
				C366.3,69.1,366.7,70.6,367.9,71.3L367.9,71.3z"/>
		</g>
	</g>
	<g>
		<g>
			<path class="st5" d="M382.7,74.7c0.6,2.3,0.7,4.6,0.8,7c0,2.2,0.2,4.6-0.7,6.7c-1,2.2-2.4,4.4-3.6,6.5c-0.4,0.8-0.6,1.2-1.4,1.6
				c-1,0.4-2.1,0.7-3,1.3c-2.8,1.7-0.2,6,2.5,4.3c1-0.6,2.2-0.8,3.2-1.4c1.1-0.6,2-1.5,2.7-2.6c1.5-2.4,3-5,4.1-7.5
				c1.2-2.7,1.2-5.5,1.2-8.4c0-3-0.2-5.9-0.9-8.8C386.7,70.3,381.9,71.6,382.7,74.7L382.7,74.7z"/>
		</g>
	</g>
	<g>
		<g>
			<path class="st5" d="M375.8,75.1c0.1,3.5,0,7-0.2,10.4c-0.1,1.7-0.2,3.4-0.4,5.1c-0.2,1.6-0.2,3.2-0.8,4.7
				c-0.5,1.3,0.5,2.7,1.7,3.1c1.4,0.4,2.6-0.5,3.1-1.7c0.6-1.6,0.7-3.5,0.9-5.2c0.2-1.8,0.3-3.7,0.5-5.5c0.2-3.6,0.3-7.2,0.2-10.8
				C380.7,71.9,375.7,71.9,375.8,75.1L375.8,75.1z"/>
		</g>
	</g>
	<g>
		<g>
			<path class="st5" d="M379.2,76.3c-0.4-1.2-0.5-1.5-0.4-0.7c0,0.1,0,0.2,0,0.3c0,0.4,0.1,0.8,0.1,1.2c0,0.7,0.1,1.3,0.1,2
				c0,1.4,0,2.8-0.1,4.2c-0.1,1.2-0.2,2.5-0.4,3.7c-0.1,0.7-0.2,1.3-0.4,2c-0.1,0.4-0.2,0.8-0.2,1.2c0,0.2-0.1,0.3-0.1,0.5
				c-0.2,0.5-0.1,0.5,0.3-0.2c-0.9,1-1,2.5,0,3.5c0.9,0.9,2.6,1,3.5,0c1.2-1.4,1.4-3.6,1.7-5.3c0.3-1.8,0.5-3.6,0.6-5.4
				c0.1-1.7,0.2-3.4,0.1-5.1c0-1.7,0.2-4.3-1.2-5.5c-1-0.9-2.5-1-3.5,0C378.3,73.7,378.1,75.4,379.2,76.3L379.2,76.3z"/>
		</g>
	</g>
	<g>
		<g>
			<path class="st5" d="M377.2,86.5c-4.7,3.6-10.4,6.6-16.3,6.4c-1.4,0-2.5,1.2-2.5,2.5c0,1.4,1.1,2.5,2.5,2.5
				c7.4,0.3,14.2-3.4,19.9-7.8c1.1-0.8,0.9-2.7,0-3.5C379.7,85.4,378.3,85.6,377.2,86.5L377.2,86.5z"/>
		</g>
	</g>
	<g>
		<g>
			<path class="st5" d="M377.4,96.1c-4.5,0.1-9.1-0.1-13.6-0.5c0.4,1.6,0.8,3.1,1.3,4.7c0.2-0.1,0.4-0.3,0.6-0.4
				c-0.4,0.2,0.2,0,0.3-0.1c0.4-0.1,0.8-0.2,1.2-0.4c1-0.3,1.9-0.5,2.9-0.8c0.9-0.2,1.9-0.5,2.8-0.6c0.5-0.1,0.9-0.2,1.4-0.2
				c-0.4,0.1,0.4,0,0.4,0c0.3,0,0.5,0,0.8-0.1c1.3-0.1,2.6-1.1,2.5-2.5c-0.1-1.3-1.1-2.6-2.5-2.5c-2.3,0.2-4.5,0.6-6.7,1.1
				c-1,0.3-2,0.5-3,0.8c-1.1,0.3-2.2,0.6-3.1,1.2c-0.9,0.6-1.5,1.7-1.1,2.8c0.4,1.1,1.3,1.7,2.4,1.8c4.5,0.4,9,0.5,13.6,0.5
				c1.3,0,2.6-1.1,2.5-2.5C379.8,97.3,378.8,96.1,377.4,96.1L377.4,96.1z"/>
		</g>
	</g>
	<g>
		<g>
			<path class="st5" d="M368,97.7c-3.4-0.1-6.7-0.4-10.1-0.9c-3-0.4-6.1-0.6-8.7-2.3c-2.4-1.5-4.7-3.1-6.2-5.5
				c-0.7-1.1-1.4-2.3-1.9-3.6c-0.5-1.2-1.3-2.6-1.5-3.9c0,0.4,0,0.9,0,1.3c0-0.1,0.1-0.2,0.1-0.3c-0.2,0.4-0.4,0.7-0.6,1.1
				c-0.3,0.3,0.4-0.1,0.7-0.2c0.4-0.1,0.8-0.3,1.3-0.4c0.9-0.2,1.8-0.4,2.7-0.4c0.2,0,1,0.2,0.6-0.2c0.4,0.4,0.5,1.7,0.7,2.3
				c1.4,3.4,4.2,5.6,7,7.6c1.4,1,2.9,2,4.6,2.6c0.9,0.3,1.8,0.5,2.8,0.5c0.2,0,0.5,0.1,0.6,0.1c0,0,0.1,0,0.1,0
				c-0.2-0.7-0.4-1.3-0.6-2c-0.1,0-0.4,0.2-0.5,0.3c-1.4,0.7-2.5,0.9-3.8-0.1c-1.4-1-2.6-2.3-4-3.4c-1.6-1.2-3.3-2.4-4.6-4
				c-1.4-1.6-2.6-3.4-3.8-5.1c-0.5,1.2-1,2.4-1.5,3.7c-0.5,0.1-0.1,0,0.2,0.2c0.3,0.2,0.6,0.6,0.8,1c0.6,1,1.2,2,2,2.8
				c1.5,1.7,3.6,2.8,5.6,3.6c4.1,1.7,8.6,2.3,12.6,4.3c2.9,1.5,5.4-2.9,2.5-4.3c-4.4-2.2-9.4-2.8-13.9-4.9c-1-0.5-2-1-2.8-1.7
				c-0.8-0.7-1.3-1.7-1.9-2.5c-1.6-2.3-3.7-3.8-6.6-3.4c-1.6,0.2-2.3,2.5-1.5,3.7c2.1,3.2,4.3,6.4,7.4,8.8c1.5,1.1,3,2.2,4.3,3.4
				c1.4,1.2,2.7,2.5,4.5,3.1c3.3,1.1,10-1,9.4-5.4c-0.3-2.2-2.2-3.1-4.2-3.3c-1.6-0.2-2.8-0.7-4.1-1.6c-2.3-1.5-5.4-3.5-6.3-6.3
				c-0.6-1.8-1-3.5-2.8-4.5c-1.8-0.9-3.9-0.6-5.8-0.3c-1.7,0.3-4.2,0.8-5.4,2.1c-1.6,1.7-0.4,3.9,0.4,5.7c1.4,3.4,3.1,6.8,5.9,9.3
				c1.6,1.5,3.5,2.7,5.4,3.9c1.9,1.2,3.9,1.7,6.1,2.1c4.9,0.8,9.8,1.5,14.8,1.6C371.2,102.7,371.2,97.7,368,97.7L368,97.7z"/>
		</g>
	</g>
	<g>
		<g>
			<path class="st5" d="M446,50.9c2.7-0.2,5.5-0.1,8.2,0.3c-0.2,0-0.4-0.1-0.7-0.1c0.2,0,0.3,0,0.5,0.1c0.7,0.1,1.3,0.1,1.9-0.3
				c0.5-0.3,1-0.9,1.1-1.5c0.1-0.6,0.1-1.4-0.3-1.9c-0.3-0.5-0.9-1.1-1.5-1.1c-3.1-0.5-6.2-0.6-9.4-0.4c-1.3,0.1-2.6,1.1-2.5,2.5
				C443.6,49.7,444.6,51,446,50.9L446,50.9z"/>
		</g>
	</g>
	<g>
		<g>
			<path class="st5" d="M446,48.2c0.2-0.1,0.2-0.1-0.1,0.1c0.1,0,0.2-0.1,0.3-0.1c0.2-0.1,0.3-0.1,0.5-0.1c0.2,0,0.3-0.1,0.5-0.1
				c0.1,0,0.2,0,0.3-0.1c0.3,0,0.2,0-0.2,0c0.1,0,0.4,0,0.5-0.1c0.2,0,0.3,0,0.5,0c0.4,0,0.8-0.1,1.2-0.1c0.8-0.1,1.6-0.1,2.3-0.2
				c0.4,0,0.7,0,1.1,0c0.2,0,0.2,0,0,0c-0.2,0-0.2,0,0,0c0.1,0,0.2,0,0.3,0.1c-0.4-0.2-0.4-0.2-0.2-0.1c1.2,0.6,2.8,0.3,3.4-0.9
				c0.6-1.1,0.3-2.8-0.9-3.4c-1.9-1-4-0.6-6-0.5c-1,0.1-2,0.2-3,0.3c-1,0.1-2,0.4-2.9,0.9c-1.2,0.6-1.6,2.4-0.9,3.4
				C443.4,48.5,444.8,48.8,446,48.2L446,48.2z"/>
		</g>
	</g>
	<g>
		<g>
			<path class="st5" d="M456.6,45.8c-1.4-2.7-2.7-5.6-4.9-7.8c-2-2-4.7-3.2-7.4-4c-6.2-1.8-13.1-1.9-19.4-1.4
				c-1.3,0.1-2.5,1.1-2.5,2.5c0,1.3,1.1,2.6,2.5,2.5c5.7-0.5,11.8-0.4,17.4,1c2.1,0.5,4.2,1.3,5.8,2.8c2,1.8,3,4.5,4.3,6.9
				C453.7,51.1,458.1,48.6,456.6,45.8L456.6,45.8z"/>
		</g>
	</g>
	<g>
		<g>
			<path class="st5" d="M418.3,36.8c8.9-1.5,18.1-0.5,26.6,2.6c1.3,0.5,2.7-0.5,3.1-1.7c0.4-1.4-0.5-2.6-1.7-3.1
				c-9.4-3.5-19.5-4.3-29.3-2.6c-1.3,0.2-2.1,1.9-1.7,3.1C415.6,36.4,417,37,418.3,36.8L418.3,36.8z"/>
		</g>
	</g>
	<g>
		<g>
			<path class="st5" d="M433.3,35.1c1,0,2.1,0.1,3.1,0.2c0.3,0,0.3,0,0,0c0.1,0,0.3,0,0.4,0.1c0.2,0,0.4,0.1,0.7,0.1
				c0.5,0.1,1,0.2,1.5,0.3c1,0.3,2,0.6,3,0.9c0.2,0.1,0.4,0.2,0.6,0.2c-0.5-0.2,0.3,0.2,0.4,0.2c0.5,0.2,0.9,0.5,1.4,0.7
				c1.2,0.6,2.8,0.3,3.4-0.9c0.6-1.2,0.3-2.8-0.9-3.4c-4.2-2.3-8.9-3.5-13.7-3.4c-1.3,0-2.6,1.1-2.5,2.5
				C430.9,33.9,431.9,35.1,433.3,35.1L433.3,35.1z"/>
		</g>
	</g>
	<g>
		<g>
			<path class="st5" d="M442.8,46.4c2.2-0.7,4.5-1.3,6.8-1.6c0.6-0.1,1.2-0.7,1.5-1.1c0.3-0.5,0.4-1.3,0.3-1.9
				c-0.2-0.6-0.6-1.2-1.1-1.5c-0.2-0.1-0.4-0.2-0.6-0.3c-0.4-0.1-0.9-0.1-1.3,0c-2.3,0.4-4.6,0.9-6.8,1.6c-0.6,0.2-1.2,0.6-1.5,1.1
				c-0.3,0.5-0.4,1.3-0.3,1.9C440.1,45.9,441.4,46.8,442.8,46.4L442.8,46.4z"/>
		</g>
	</g>
	<g>
		<g>
			<path class="st5" d="M441.1,43c1.3-0.1,2.7-0.2,4-0.3c0.7,0,1.3-0.2,1.8-0.7c0.4-0.4,0.8-1.1,0.7-1.8c0-0.6-0.2-1.3-0.7-1.8
				c-0.5-0.4-1.1-0.8-1.8-0.7c-1.3,0.1-2.7,0.2-4,0.3c-0.7,0-1.3,0.2-1.8,0.7c-0.4,0.4-0.8,1.1-0.7,1.8c0,0.6,0.2,1.3,0.7,1.8
				C439.8,42.7,440.4,43.1,441.1,43L441.1,43z"/>
		</g>
	</g>
	<g>
		<g>
			<path class="st5" d="M441.7,37.4c-1.3-0.1-2.6-0.5-3.9-0.7c-1.6-0.3-3.3-0.4-4.9-0.6c-3.1-0.2-6.3-0.4-9.4-0.7
				c-1.3-0.1-2.5,1.2-2.5,2.5c0,1.4,1.1,2.4,2.5,2.5c3.1,0.2,6.3,0.4,9.4,0.7c1.4,0.1,2.7,0.2,4.1,0.5c1.6,0.3,3.1,0.7,4.8,0.8
				c1.3,0.1,2.5-1.2,2.5-2.5C444.2,38.5,443,37.5,441.7,37.4L441.7,37.4z"/>
		</g>
	</g>
	<g>
		<g>
			<path class="st5" d="M417.6,31.4c-2.4,0.2-4,1.7-5.8,3.1c-1.5,1.3-3,2.7-4.1,4.3c-2.5,3.6-2.5,8-2.2,12.2
				c0.1,1.3,1.1,2.5,2.5,2.5c1.3,0,2.6-1.1,2.5-2.5c-0.1-1.7-0.3-3.4-0.1-5.2c0.1-1.4,0.5-2.8,1.3-4.1c0.7-1.1,1.7-2.1,2.9-3.1
				c0.6-0.5,1.2-1,1.8-1.5c-0.2,0.2,0.1-0.1,0.2-0.1c0.2-0.1,0.3-0.2,0.5-0.3c0,0,0.5-0.3,0.4-0.3c-0.1,0.1,0.4-0.1,0.1-0.1
				c1.3-0.1,2.5-1.1,2.5-2.5C420.1,32.6,419,31.3,417.6,31.4L417.6,31.4z"/>
		</g>
	</g>
	<g>
		<g>
			<path class="st5" d="M410.6,51.5c0,0,0.3-0.7,0.1-0.3c0.1-0.2,0.2-0.4,0.3-0.6c0.2-0.4,0.4-0.8,0.6-1.2c0.4-0.7,0.9-1.4,1.4-2.1
				c0,0,0.5-0.6,0.2-0.3c0.1-0.2,0.3-0.3,0.4-0.5c0.3-0.4,0.6-0.7,0.9-1.1c0.5-0.6,1.1-1.3,1.7-1.9c0.5-0.6,1.1-1.2,1.6-1.8
				c0.3-0.3,0.5-0.5,0.8-0.8c0.2-0.2,0.3-0.3,0.5-0.4c0,0,0.5-0.4,0.3-0.2c-0.2,0.2,0.2-0.2,0.3-0.2c0.2-0.1,0.4-0.3,0.6-0.4
				c0.3-0.2,0.6-0.4,1-0.5c0.4-0.2-0.2,0,0.1-0.1c0.2-0.1,0.3-0.1,0.5-0.2c0.4-0.1,0.9-0.2,1.3-0.3c1.3-0.2,2.1-1.9,1.7-3.1
				c-0.5-1.4-1.7-2-3.1-1.7c-3.8,0.6-6.7,3.4-9.1,6.2c-2.7,3.1-5.4,6.2-6.8,10.1c-0.4,1.2,0.5,2.8,1.7,3.1
				C408.9,53.6,410.1,52.8,410.6,51.5L410.6,51.5z"/>
		</g>
	</g>
	<g>
		<g>
			<path class="st5" d="M416,45.6c0.1-0.1,0.2-0.1,0.3-0.1c-0.4,0.1-0.4,0.2-0.2,0.1c0.2,0,0.4-0.1,0.6-0.2c0.4-0.1,0.8-0.1,1.2-0.2
				c0.8-0.1,1.6-0.3,2.4-0.6c1.7-0.6,3.4-1.4,4.8-2.5c0.5-0.4,1-0.8,1.1-1.5c0.2-0.6,0.1-1.4-0.3-1.9c-0.3-0.5-0.9-1-1.5-1.1
				c-0.6-0.1-1.4-0.1-1.9,0.3c-0.7,0.5-1.3,0.9-2.1,1.3c-0.2,0.1-0.4,0.2-0.6,0.3c-0.1,0-0.2,0.1-0.3,0.1c-0.2,0.1-0.2,0.1,0.2-0.1
				c-0.2,0-0.4,0.2-0.6,0.2c-0.2,0.1-0.4,0.1-0.6,0.2c-1.7,0.5-3.6,0.5-5.2,1.4c-1.2,0.6-1.6,2.3-0.9,3.4
				C413.3,45.8,414.7,46.2,416,45.6L416,45.6z"/>
		</g>
	</g>
	<g>
		<g>
			<path class="st5" d="M416.4,41.5c-1.5,2.5-3.1,5-4.6,7.6c-1.5,2.5-3.5,5.1-3.6,8.1c-0.1,1.3,1.2,2.6,2.5,2.5
				c1.4-0.1,2.4-1.1,2.5-2.5c0-0.3,0-0.3,0-0.1c0-0.2,0.1-0.3,0.1-0.5c0-0.2,0.1-0.3,0.2-0.5c0.1-0.3,0.1-0.3,0.1-0.2
				c0.1-0.3,0.6-1.1,0.8-1.5c0.7-1.1,1.4-2.3,2.1-3.4c1.4-2.4,2.9-4.7,4.3-7.1c0.7-1.1,0.3-2.8-0.9-3.4
				C418.6,39.9,417.1,40.3,416.4,41.5L416.4,41.5z"/>
		</g>
	</g>
	<g>
		<g>
			<path class="st5" d="M409.5,57.5c3-0.7,6-1.6,8.9-2.6c0.6-0.2,1.2-0.6,1.5-1.1c0.3-0.5,0.4-1.3,0.3-1.9c-0.4-1.2-1.8-2.2-3.1-1.7
				c-2.9,1.1-5.9,1.9-8.9,2.6c-1.3,0.3-2.2,1.8-1.7,3.1C406.8,57.1,408.1,57.8,409.5,57.5L409.5,57.5z"/>
		</g>
	</g>
	<g>
		<g>
			<path class="st5" d="M416.4,52.6c3.2,0,3.2-5,0-5C413.1,47.6,413.1,52.6,416.4,52.6L416.4,52.6z"/>
		</g>
	</g>
	<g>
		<g>
			<path class="st5" d="M412.4,62.7c3.1-0.9,6.1-2.2,8.9-3.8c1.1-0.6,1.6-2.3,0.9-3.4c-0.7-1.2-2.2-1.6-3.4-0.9
				c-1.3,0.7-2.7,1.4-4.1,2c0.2-0.1,0.4-0.2,0.6-0.3c-1.4,0.6-2.8,1.1-4.2,1.5c-1.2,0.4-2.2,1.8-1.7,3.1
				C409.7,62.2,411.1,63.1,412.4,62.7L412.4,62.7z"/>
		</g>
	</g>
	<g>
		<g>
			<path class="st5" d="M413.8,58.5c2-0.3,3.9-0.6,5.9-0.9c0.6-0.1,1.2-0.7,1.5-1.1c0.3-0.5,0.4-1.3,0.3-1.9
				c-0.2-0.6-0.6-1.2-1.1-1.5c-0.2-0.1-0.4-0.2-0.6-0.3c-0.4-0.1-0.9-0.1-1.3,0c-2,0.3-3.9,0.6-5.9,0.9c-0.6,0.1-1.2,0.7-1.5,1.1
				c-0.3,0.5-0.4,1.3-0.3,1.9c0.2,0.6,0.6,1.2,1.1,1.5c0.2,0.1,0.4,0.2,0.6,0.3C413,58.7,413.4,58.7,413.8,58.5L413.8,58.5z"/>
		</g>
	</g>
	<g>
		<g>
			<path class="st5" d="M415.4,64.8c3.7-0.6,7.2-1.8,10.6-3.3c1.2-0.6,1.6-2.4,0.9-3.4c-0.8-1.2-2.1-1.5-3.4-0.9
				c-0.2,0.1-0.4,0.2-0.7,0.3c-0.1,0-0.5,0.2-0.5,0.2c0.3-0.1,0.3-0.1,0.1,0c-0.1,0-0.2,0.1-0.3,0.1c-0.2,0.1-0.3,0.1-0.5,0.2
				c-0.8,0.3-1.6,0.6-2.4,0.8c-1.6,0.5-3.3,0.9-5,1.2c-1.3,0.2-2.1,1.9-1.7,3.1C412.8,64.5,414,65,415.4,64.8L415.4,64.8z"/>
		</g>
	</g>
	<g>
		<g>
			<path class="st5" d="M421.3,58.9c3.2,0,3.2-5,0-5C418.1,53.9,418.1,58.9,421.3,58.9L421.3,58.9z"/>
		</g>
	</g>
	<g>
		<g>
			<path class="st5" d="M418.7,66.3c2.6-0.4,5.2-0.9,7.8-1.3c2.6-0.4,4.7-0.9,7.2-0.8c1.3,0,2.6-1.2,2.5-2.5
				c-0.1-1.4-1.1-2.5-2.5-2.5c-2.8-0.1-5.5,0.5-8.2,1c-2.7,0.4-5.4,0.9-8.1,1.3c-1.3,0.2-2.1,1.9-1.7,3.1
				C416.1,65.9,417.3,66.5,418.7,66.3L418.7,66.3z"/>
		</g>
	</g>
	<g>
		<g>
			<path class="st5" d="M424.6,60.8c1.6,1.1,3.2,2.2,4.8,3.2c0.6,0.3,1.3,0.4,1.9,0.3c0.6-0.2,1.2-0.6,1.5-1.1
				c0.3-0.6,0.5-1.3,0.3-1.9c-0.2-0.6-0.6-1.2-1.1-1.5c-1.7-1-3.3-2-4.8-3.2c-0.5-0.4-1.4-0.4-1.9-0.3c-0.6,0.2-1.2,0.6-1.5,1.1
				c-0.3,0.6-0.5,1.3-0.3,1.9c0.1,0.2,0.2,0.4,0.3,0.6C423.9,60.2,424.2,60.5,424.6,60.8L424.6,60.8z"/>
		</g>
	</g>
	<g>
		<g>
			<path class="st5" d="M420.1,67c3,0.3,5.8,1.8,8.6,2.9c2.9,1.2,5.7,2.6,8.5,4c5.7,2.8,11.7,4.6,17.8,6.4c3.1,0.9,4.4-3.9,1.3-4.8
				c-6.1-1.8-12.2-3.7-17.9-6.5c-2.9-1.5-5.9-2.8-8.9-4c-3.1-1.3-6.1-2.6-9.5-2.9c-1.3-0.2-2.5,1.3-2.5,2.5
				C417.6,65.9,418.8,66.8,420.1,67L420.1,67z"/>
		</g>
	</g>
	<g>
		<g>
			<path class="st5" d="M429.9,66c9.3,1.7,18,5.4,25.7,10.8c1.1,0.8,2.8,0.2,3.4-0.9c0.7-1.2,0.2-2.6-0.9-3.4
				c-8-5.6-17.3-9.5-26.9-11.3c-1.3-0.2-2.7,0.4-3.1,1.7C427.9,64.1,428.6,65.8,429.9,66L429.9,66z"/>
		</g>
	</g>
	<g>
		<g>
			<path class="st5" d="M433,68.7c3.4,0.5,6.7,1.6,9.7,3.3c3.1,1.7,5.9,3.9,9.3,4.7c3.1,0.8,4.5-4,1.3-4.8c-3.2-0.8-5.8-3-8.7-4.6
				c-3.2-1.7-6.7-2.9-10.3-3.5c-1.3-0.2-2.7,0.3-3.1,1.7C430.9,66.8,431.7,68.5,433,68.7L433,68.7z"/>
		</g>
	</g>
	<g>
		<g>
			<path class="st5" d="M435.5,63.5C435.3,63.5,435.3,63.4,435.5,63.5C435.3,63.4,435.4,63.5,435.5,63.5c0.4,0.2,0.7,0.4,1,0.5
				c0.6,0.3,1.2,0.7,1.8,1c1.2,0.7,2.4,1.5,3.6,2.3c0.6,0.4,1.1,0.8,1.7,1.2c0.3,0.2,0.6,0.4,0.8,0.6c0.3,0.3-0.2-0.2,0.1,0.1
				c0.1,0.1,0.3,0.2,0.4,0.3c1.1,0.9,2.2,1.8,3.3,2.8c1,0.9,2.6,1,3.5,0c0.9-1,1-2.6,0-3.5c-2.4-2.1-4.9-4.1-7.5-5.9
				c-1.3-0.9-2.5-1.7-3.8-2.4c-1.5-0.9-3.1-2-4.8-2c-1.3,0-2.6,1.1-2.5,2.5C433.1,62.4,434.1,63.5,435.5,63.5L435.5,63.5z"/>
		</g>
	</g>
	<g>
		<g>
			<path class="st5" d="M444.9,67.2c1.9-0.1,4.8,0.8,5.6,2.6c1.1,2.3,1.8,5,2.3,7.5c0.5,2.5,0.8,5.1,0.8,7.6c0,1.1,0,2.2-0.3,3.2
				c-0.1,0.6-0.3,1.2-0.5,1.8c-0.1,0.2-0.2,0.5-0.3,0.7c-0.1,0.1-0.1,0.2-0.2,0.4c-0.2,0.3-0.1,0.2,0.1-0.1c0.4-0.1,0.8-0.2,1.3-0.3
				c0.1,0,0.1,0,0.2,0c0.4,0.2,0.7,0.4,1.1,0.6c-0.1,0-0.1-0.1-0.2-0.1c0.2,0.4,0.4,0.7,0.6,1.1c0-0.1,0-0.1-0.1-0.2
				c-0.9-3.1-5.8-1.8-4.8,1.3c0.7,2.2,3.4,3,5.1,1.4c1.2-1.2,1.9-3.1,2.3-4.8c0.9-3.7,0.5-7.7,0-11.4c-0.5-3.7-1.5-7.6-3.1-11
				c-0.8-1.7-2.2-3-4-3.8c-1.9-0.9-3.9-1.7-6.1-1.5c-1.3,0.1-2.5,1.1-2.5,2.5C442.4,66,443.6,67.3,444.9,67.2L444.9,67.2z"/>
		</g>
	</g>
	<g>
		<g>
			<path class="st5" d="M445.1,78.3c1.3,4.8,1.6,9.5,1,14.6c1.4-0.6,2.8-1.2,4.3-1.8c0.1,0.5,0.2,1,0.3,1.4c0.2-1.3-0.3-2.8-1.7-3.1
				c-1.2-0.3-2.9,0.4-3.1,1.7c-0.2,1.3,0,2.5,1,3.4c0.7,0.7,1.8,0.9,2.7,0.5c1-0.4,1.4-1.3,1.5-2.3c0.6-5.3,0.2-10.7-1.2-15.9
				c-0.3-1.3-1.8-2.2-3.1-1.7C445.5,75.6,444.7,76.9,445.1,78.3L445.1,78.3z"/>
		</g>
	</g>
	<g>
		<g>
			<path class="st5" d="M449.3,80.3C449.1,80,449.1,80,449.3,80.3c-0.3-0.3-0.3-0.3-0.1-0.1c-0.3-0.4,0-0.1,0,0.1
				c0.1,0.2,0.1,0.5,0.1,0.7c0,0.1,0,0.1,0-0.1c0,0.2,0,0.3,0.1,0.5c0.1,1.2,0.2,2.3,0.1,3.5c0,0.6-0.1,1.1-0.1,1.7
				c0,0.2,0,0.3-0.1,0.5c0-0.2,0-0.2,0,0.1c0,0.3-0.1,0.5-0.1,0.8c-0.2,1.1-0.5,2.4-0.9,3.4c0.2-0.4,0.4-0.7,0.6-1.1
				c0,0-0.1,0.1-0.1,0.1c0.6-0.2,1.2-0.5,1.8-0.7c0,0-0.1,0-0.1,0c0.4,0.1,0.8,0.2,1.3,0.3c0,0-0.1,0-0.1-0.1c0.4,0.5,0.8,1,1.1,1.5
				c0,0,0-0.1,0-0.1c-0.3-1.3-1.8-2.2-3.1-1.7c-1.3,0.4-2.1,1.7-1.7,3.1c0.4,1.6,2.5,2.6,3.9,1.6c1.1-0.7,1.4-1.9,1.7-3
				c0.5-1.8,0.8-3.6,0.9-5.4c0.1-1.7,0.1-3.4-0.1-5c-0.2-2-0.7-3.9-2.5-5c-1.1-0.7-2.8-0.3-3.4,0.9
				C447.8,78.1,448.1,79.5,449.3,80.3L449.3,80.3z"/>
		</g>
	</g>
	<g>
		<g>
			<path class="st5" d="M446.9,83.5c-2.1,2-3.3,4.6-5,6.9c0.1-0.2,0.3-0.3,0.4-0.5c-0.1,0.2-0.3,0.3-0.4,0.4
				c0.2-0.1,0.3-0.3,0.5-0.4c-0.1,0.1-0.2,0.1-0.3,0.1c0.2-0.1,0.4-0.2,0.6-0.3c-0.1,0-0.1,0-0.2,0c0.2,0,0.4-0.1,0.7-0.1
				c-0.1,0-0.1,0-0.2,0c0.2,0,0.4,0.1,0.7,0.1c0,0-0.1,0-0.1,0c0.2,0.1,0.4,0.2,0.6,0.3c0,0-0.1,0-0.1,0c-0.6-0.3-1.2-0.4-1.9-0.3
				c-0.6,0.2-1.2,0.6-1.5,1.1c-0.3,0.6-0.5,1.3-0.3,1.9c0.2,0.6,0.6,1.2,1.1,1.5c0.8,0.4,1.6,0.5,2.5,0.3c0.6-0.2,1.2-0.6,1.6-1
				c0.6-0.6,1-1.4,1.5-2.1c0.7-1.2,1.5-2.3,2.3-3.4c-0.1,0.2-0.3,0.3-0.4,0.5c0.4-0.5,0.9-1.1,1.4-1.5c1-0.9,1-2.6,0-3.5
				C449.4,82.6,447.9,82.5,446.9,83.5L446.9,83.5z"/>
		</g>
	</g>
	<g>
		<g>
			<path class="st5" d="M450.7,92.7c-6.8,3-13.8,5.4-20.9,7.2c-3.1,0.8-1.8,5.6,1.3,4.8c7.6-2,15-4.6,22.1-7.7
				c1.2-0.5,1.5-2.3,0.9-3.4C453.4,92.3,452,92.1,450.7,92.7L450.7,92.7z"/>
		</g>
	</g>
	<g>
		<g>
			<path class="st5" d="M433.4,104.9c4.7,0.1,9.6,0.6,14.1-1.3c1.2-0.5,2.2-1.7,1.7-3.1c-0.4-1.2-1.8-2.3-3.1-1.7
				c-1,0.4-2,0.7-3.1,1c-0.2,0.1-0.5,0.1-0.7,0.1c-0.3,0-0.3,0.1-0.1,0c-0.1,0-0.2,0-0.4,0c-0.5,0.1-1.1,0.1-1.6,0.1
				c-2.3,0-4.6-0.1-6.8-0.1c-1.3,0-2.6,1.2-2.5,2.5C431,103.7,432,104.8,433.4,104.9L433.4,104.9z"/>
		</g>
	</g>
	<g>
		<g>
			<path class="st5" d="M446.5,90.6c-0.6,0.2-1.1,0.4-1.7,0.5c-0.2,0.1-0.5,0.1-0.7,0.2c-0.1,0-1,0.2-0.6,0.1
				c-1.1,0.1-2.2,0.1-3.3,0.1c-2.4-0.2-4.8-0.4-7.2,0.2c-1.3,0.3-2.2,1.8-1.7,3.1c0.4,1.3,1.7,2.1,3.1,1.7c0.3-0.1,0.6-0.2,1-0.2
				c-0.4,0.1,0.2,0,0.3,0c0.6,0,1.2,0,1.8,0c1.1,0.1,2.2,0.2,3.3,0.2c2.4,0.1,4.9-0.2,7.2-1.1c1.2-0.4,2.2-1.7,1.7-3.1
				C449.2,91.1,447.8,90.2,446.5,90.6L446.5,90.6z"/>
		</g>
	</g>
	<g>
		<g>
			<path class="st5" d="M429.5,97.9c2.1,0.5,4.1,1.1,6,1.8c1,0.4,1.9,0.7,2.9,0.9c1.4,0.3,2.6,0.3,4,0.1c1-0.2,1.9-1.4,1.8-2.4
				c-0.1-1.2-0.8-2-1.8-2.4c-1.1-0.4-2.6-0.2-3.5,0.5c-0.5,0.4-1,0.8-1.1,1.5c-0.2,0.6-0.1,1.4,0.3,1.9c0.7,1,2.3,1.7,3.4,0.9
				c0.1-0.1,0.2-0.1,0.3-0.2c-0.1,0.1-0.3,0.1-0.4,0.1c-0.2,0-0.2,0,0,0c-0.4-0.1-0.4-0.1-0.2,0c0-1.6,0-3.2,0-4.8
				c0.6-0.1-0.2,0-0.3,0c-0.2,0-0.5,0-0.7,0c0.5,0.2-0.1,0-0.2,0c-0.2,0-0.4-0.1-0.6-0.2c-1-0.3-1.9-0.6-2.8-1
				c-1.8-0.7-3.7-1.2-5.6-1.7c-1.3-0.3-2.8,0.4-3.1,1.7C427.4,96.1,428.1,97.6,429.5,97.9L429.5,97.9z"/>
		</g>
	</g>
	<g>
		<g>
			<path class="st5" d="M432.2,98.6c-2.4,0.8-4.8,0.4-7.2-0.3c-2.6-0.8-5.2-1.8-7.7-3c-1.1-0.5-2.4-1.1-3.4-1.8
				c-0.9-0.7-1.4-1.8-1.9-2.8c-1.2-2.5-2.2-5.1-3.1-7.7c-1-3-5.9-1.7-4.8,1.3c1.1,3.1,2.3,6.2,3.7,9.1c0.7,1.5,1.5,2.8,2.8,3.8
				c1.3,1,2.7,1.7,4.2,2.4c2.9,1.4,6,2.7,9.1,3.6c3.1,0.9,6.5,1.3,9.6,0.3c1.3-0.4,2.1-1.7,1.7-3.1
				C434.9,99.1,433.5,98.1,432.2,98.6L432.2,98.6z"/>
		</g>
	</g>
	<g>
		<g>
			<path class="st5" d="M406,85.2c3.2-0.2,6.3-0.6,9.4-1.2c1.3-0.3,2.1-1.9,1.7-3.1c-0.4-1.4-1.7-2-3.1-1.7
				c-1.3,0.3-2.6,0.5-3.8,0.6c0.2,0,0.4-0.1,0.7-0.1c-1.6,0.2-3.3,0.4-4.9,0.4c-1.3,0.1-2.6,1.1-2.5,2.5
				C403.6,84,404.6,85.3,406,85.2L406,85.2z"/>
		</g>
	</g>
	<g>
		<g>
			<path class="st5" d="M412.2,83c2,3.8,5,7,8.4,9.6c3.7,2.9,7.6,5.6,11.6,7.9c2.8,1.6,5.3-2.7,2.5-4.3c-3.7-2.2-7.3-4.5-10.6-7.2
				c-3-2.4-5.8-5.2-7.6-8.6c-0.6-1.2-2.3-1.6-3.4-0.9C411.8,80.3,411.5,81.8,412.2,83L412.2,83z"/>
		</g>
	</g>
	<g>
		<g>
			<path class="st5" d="M432.4,97.7c-3.7-1.6-7.6-3-11-5.3c-3.2-2.1-5.8-5.4-8.5-8.2c-2.2-2.3-5.8,1.2-3.5,3.5
				c2.9,3,5.7,6.4,9.2,8.8c3.4,2.3,7.5,3.8,11.3,5.5c1.2,0.5,2.7,0.4,3.4-0.9C433.9,100,433.6,98.2,432.4,97.7L432.4,97.7z"/>
		</g>
	</g>
	<g>
		<g>
			<path class="st5" d="M406.5,87.7c0.2,2.5,0.5,5.1,2.4,7c0.8,0.8,1.8,1.4,2.8,2c1.1,0.6,2.1,1.1,3.2,1.7c1.2,0.6,2.8,0.3,3.4-0.9
				c0.6-1.2,0.3-2.7-0.9-3.4c-0.1-0.1-0.3-0.2-0.4-0.3c-0.1,0-0.1-0.1-0.2-0.1c0.1,0.1,0.2,0.2,0.3,0.2c-0.2-0.1-0.5-0.4-0.6-0.6
				c-0.1-0.1-0.2-0.2-0.3-0.4c-0.1-0.1-0.1-0.1-0.2-0.2c0.1,0.1,0.2,0.2,0.2,0.3c-0.2-0.2-0.4-0.5-0.5-0.8c-0.3-0.5-0.6-1-0.8-1.6
				c-0.1-0.1-0.1-0.3-0.2-0.4c-0.2-0.4,0.2,0.6,0,0.1c-0.1-0.3-0.2-0.6-0.4-0.9c-0.2-0.6-0.5-1.1-1.1-1.5c-0.5-0.3-1.3-0.4-1.9-0.3
				c-0.6,0.2-1.2,0.6-1.5,1.1c-0.3,0.6-0.4,1.2-0.3,1.9c0.5,2.7,2.7,4.9,5.2,5.7c1.3,0.4,2.8-0.4,3.1-1.7c0.3-1.3-0.4-2.7-1.7-3.1
				c-0.1,0-0.2-0.1-0.3-0.1c-0.4-0.2,0.2,0,0.2,0.1c0-0.1-0.4-0.2-0.5-0.3c0,0-0.3-0.2-0.3-0.2c0,0,0.5,0.4,0.2,0.2
				c-0.2-0.2-0.3-0.3-0.5-0.5c-0.1-0.2-0.2-0.4,0.1,0.2c-0.1-0.1-0.1-0.2-0.2-0.3c-0.1-0.2-0.2-0.3-0.3-0.5
				c-0.1-0.2-0.1-0.4,0.1,0.2c0-0.1-0.1-0.2-0.1-0.3c-0.1-0.2-0.1-0.4-0.2-0.7c-1.6,0.4-3.2,0.9-4.8,1.3c1.2,2.9,2.5,6,5.4,7.6
				c0.8-1.4,1.7-2.9,2.5-4.3c-1.5-0.8-3.2-1.5-4.6-2.5c-0.1,0-0.2-0.1-0.2-0.2c0,0,0.4,0.4,0.2,0.1c-0.1-0.1-0.3-0.2-0.4-0.4
				c-0.1-0.1-0.1-0.2-0.2-0.3c-0.2-0.2,0.3,0.4,0.1,0.2c-0.1-0.2-0.2-0.3-0.3-0.5c0-0.1-0.2-0.3-0.2-0.3c0,0,0.2,0.6,0.1,0.2
				c-0.1-0.2-0.1-0.3-0.2-0.5c-0.1-0.4-0.2-0.8-0.2-1.2c0,0.2,0.1,0.4,0.1,0.7c-0.1-0.6-0.1-1.1-0.2-1.7c-0.1-1.3-1.1-2.6-2.5-2.5
				C407.7,85.2,406.4,86.3,406.5,87.7L406.5,87.7z"/>
		</g>
	</g>
	<g>
		<g>
			<path class="st5" d="M344.8,38.5c0.1,0,0.2,0,0.3,0c-0.2,0-0.4-0.1-0.7-0.1c0.2,0,0.4,0.1,0.6,0.1c0.1,0,0.2,0.1,0.3,0.1
				c-0.3-0.2-0.4-0.2-0.3-0.1c0.3,0.2,0.7,0.3,1,0.5c0.7,0.4,1.3,0.8,1.9,1.2c1.4,0.9,2.8,1.8,4.1,2.6c1.1,0.7,2.8,0.3,3.4-0.9
				c0.7-1.2,0.3-2.7-0.9-3.4c-1.5-1-3-1.9-4.5-2.9c-0.7-0.4-1.4-0.9-2.1-1.3c-1-0.6-2.1-0.9-3.2-1c-0.6-0.1-1.4,0.3-1.8,0.7
				c-0.4,0.4-0.8,1.1-0.7,1.8C342.3,37.4,343.4,38.4,344.8,38.5L344.8,38.5z"/>
		</g>
	</g>
	<g>
		<g>
			<path class="st5" d="M347.2,36.8c1.5,0.9,3,1.9,4.4,2.9c0.7,0.5,1.4,1,2.1,1.5c0.4,0.3,0.7,0.5,1,0.8c0.2,0.2,0.2,0.1-0.1-0.1
				c0.1,0.1,0.2,0.1,0.3,0.2c0.2,0.1,0.3,0.3,0.5,0.4c0.5,0.4,1,0.7,1.8,0.7c0.6,0,1.3-0.3,1.8-0.7c0.4-0.5,0.8-1.1,0.7-1.8
				c0-0.6-0.2-1.4-0.7-1.8c-3-2.3-6-4.5-9.2-6.5c-1.1-0.7-2.8-0.3-3.4,0.9C345.6,34.6,346,36,347.2,36.8L347.2,36.8z"/>
		</g>
	</g>
	<g>
		<g>
			<path class="st5" d="M352.5,35.1c0.1,0,0.2,0.1,0.3,0.1c-0.2-0.1-0.4-0.2-0.6-0.3c0.4,0.2,0.8,0.5,1.2,0.7
				c-0.2-0.1-0.3-0.3-0.5-0.4c1.8,1.4,3.5,3,5.1,4.7c0.9,1,2.7,1,3.5,0c1-1,0.9-2.5,0-3.5c-1-1.1-2.1-2.2-3.2-3.2
				c-0.6-0.5-1.1-1-1.7-1.4c-0.9-0.7-1.7-1.3-2.8-1.6c-1.3-0.4-2.8,0.4-3.1,1.7C350.5,33.4,351.2,34.7,352.5,35.1L352.5,35.1z"/>
		</g>
	</g>
	<g>
		<g>
			<path class="st5" d="M355.6,34.8c0.2,0,0.3,0.1,0.5,0.1c-0.2-0.1-0.4-0.2-0.6-0.3c0.2,0.1,0.4,0.2,0.6,0.4
				c-0.2-0.1-0.3-0.3-0.5-0.4c0.5,0.4,0.9,0.9,1.3,1.4c-0.1-0.2-0.3-0.3-0.4-0.5c0.9,1.2,1.8,2.5,2.8,3.7c1.1,1.2,2.4,2.1,3.9,2.6
				c1.2,0.4,2.8-0.5,3.1-1.7c0.3-1.4-0.4-2.6-1.7-3.1c-0.2-0.1-0.3-0.1-0.5-0.2c0.2,0.1,0.4,0.2,0.6,0.3c-0.4-0.2-0.9-0.4-1.2-0.7
				c0.2,0.1,0.3,0.3,0.5,0.4c-0.7-0.5-1.2-1.1-1.7-1.8c0.1,0.2,0.3,0.3,0.4,0.5c-0.8-1-1.5-2.1-2.3-3.2c-0.9-1.1-2-2.1-3.3-2.4
				c-1.3-0.3-2.8,0.4-3.1,1.7C353.5,33,354.2,34.5,355.6,34.8L355.6,34.8z"/>
		</g>
	</g>
	<g>
		<g>
			<path class="st5" d="M356.8,34.1c0.5,0.1,1,0.3,1.4,0.5c0.5,0.2-0.6-0.3-0.1-0.1c0.1,0.1,0.2,0.1,0.3,0.2
				c0.2,0.1,0.4,0.2,0.7,0.3c0.4,0.2,0.8,0.5,1.2,0.8c0.4,0.3-0.3-0.3-0.1-0.1c0.1,0.1,0.2,0.2,0.3,0.2c0.2,0.2,0.4,0.3,0.6,0.5
				c0.4,0.3,0.7,0.7,1,1.1c0.1,0.1,0.2,0.2,0.2,0.3c-0.5-0.6-0.2-0.2-0.1-0.1c0.1,0.2,0.3,0.4,0.4,0.6c0.3,0.4,0.5,0.9,0.7,1.3
				c0.1,0.1,0.1,0.2,0.2,0.3c0-0.1-0.2-0.6-0.1-0.2c0.1,0.3,0.2,0.5,0.3,0.8c0.4,1.2,1.8,2.2,3.1,1.7c1.3-0.4,2.2-1.7,1.7-3.1
				c-1.5-4.8-5.5-8.7-10.4-10c-1.3-0.3-2.8,0.4-3.1,1.7C354.8,32.4,355.5,33.8,356.8,34.1L356.8,34.1z"/>
		</g>
	</g>
	<g>
		<g>
			<path class="st5" d="M360.9,33.4c0.4,0.2,0.8,0.4,1.2,0.7c0.1,0.1,0.4,0.3,0.1,0.1c-0.3-0.2,0,0,0.1,0c0.2,0.2,0.4,0.3,0.5,0.5
				c0.3,0.3,0.7,0.7,1,1.1c0,0,0.4,0.5,0.1,0.1c-0.3-0.3,0.1,0.1,0.1,0.1c0.1,0.2,0.3,0.4,0.4,0.6c0.6,0.9,1.1,1.8,1.5,2.7
				c0.3,0.5,0.5,1,0.8,1.6c0.1,0.3,0.2,0.5,0.4,0.8c0.1,0.1,0.1,0.2,0.2,0.4c0,0.1,0.3,0.7,0.1,0.1c0.3,0.6,0.5,1.1,1.1,1.5
				c0.5,0.3,1.3,0.4,1.9,0.3c1.2-0.4,2.3-1.8,1.7-3.1c-1-2.4-2.1-4.7-3.5-6.8c-1.3-2-3-3.9-5.2-4.9c-0.6-0.3-1.2-0.4-1.9-0.3
				c-0.6,0.2-1.2,0.6-1.5,1.1C359.4,31.1,359.6,32.8,360.9,33.4L360.9,33.4z"/>
		</g>
	</g>
	<g>
		<g>
			<path class="st5" d="M364.7,34.8c0.7-0.1,1.6,0.4,2.4,0.7c0.9,0.4,1.8,0.8,2.6,1.3c1.8,1,3.6,2.1,5.3,3.2c3,2,6,4.6,7.2,8
				c0.5,1.3,1.7,2.1,3.1,1.7c1.2-0.3,2.2-1.8,1.7-3.1c-1.7-4.7-5.2-8-9.2-10.8c-1.9-1.3-3.9-2.5-5.9-3.6c-1.1-0.6-2.3-1.1-3.5-1.6
				c-1.2-0.5-2.4-1-3.7-0.9c-1.3,0.1-2.5,1.1-2.5,2.5C362.2,33.6,363.4,34.9,364.7,34.8L364.7,34.8z"/>
		</g>
	</g>
	<g>
		<g>
			<path class="st5" d="M372.5,36.2c0.2,0.1,0.4,0.1,0.6,0.2c0.3,0.1-0.5-0.3-0.1-0.1c0.1,0,0.2,0.1,0.3,0.1
				c0.4,0.2,0.8,0.4,1.1,0.7c0.1,0.1,0.2,0.1,0.3,0.2c-0.1-0.1-0.4-0.3-0.2-0.1c0.2,0.1,0.3,0.3,0.5,0.4c0.3,0.3,0.7,0.6,1,0.9
				c0.7,0.7,1.3,1.4,2,2c0.4,0.4,0.8,0.8,1.1,1.2c0.2,0.2,0.4,0.4,0.5,0.6c0.1,0.1,0.2,0.2,0.2,0.2c0.1,0.1,0.1,0.1,0.2,0.2
				c0.2,0.3,0.1,0-0.4-0.7c0.3,1.3,1.8,2.2,3.1,1.7c1.3-0.4,2.1-1.7,1.7-3.1c-0.2-0.8-0.8-1.4-1.4-2c-0.4-0.4-0.8-0.9-1.3-1.3
				c-0.8-0.8-1.5-1.6-2.3-2.3c-1.6-1.6-3.4-3-5.6-3.7c-1.3-0.4-2.8,0.5-3.1,1.7C370.5,34.5,371.2,35.8,372.5,36.2L372.5,36.2z"/>
		</g>
	</g>
	<g>
		<g>
			<path class="st5" d="M368.4,38.8C368.8,39.1,368.3,38.7,368.4,38.8c0.2,0.2,0.3,0.3,0.4,0.4c0.2,0.2,0.5,0.5,0.7,0.7
				c0.2,0.3,0.5,0.5,0.7,0.8c-0.1-0.2-0.1-0.2,0,0c0.1,0.1,0.2,0.3,0.3,0.4c0.8,1.1,1.6,2.3,2.5,3.4c1.9,2.4,3.9,4.8,6.1,6.9
				c0.9,0.9,2.6,1,3.5,0c0.9-1,1-2.6,0-3.5c-1.1-1.1-2.1-2.1-3.1-3.3c-0.5-0.6-1-1.1-1.5-1.7c-0.2-0.3-0.4-0.6-0.7-0.8
				c0-0.1-0.1-0.1-0.1-0.2c0.1,0.2,0.1,0.2,0,0c-0.1-0.2-0.2-0.3-0.4-0.5c-1.9-2.5-3.4-5.1-5.9-7c-1.1-0.8-2.8-0.2-3.4,0.9
				C366.8,36.7,367.3,38,368.4,38.8L368.4,38.8z"/>
		</g>
	</g>
	<g>
		<g>
			<path class="st5" d="M372.8,48.1c0.1,0.1,0.1,0.1,0.2,0.2c-0.1-0.2-0.3-0.3-0.4-0.5c0.3,0.4,0.5,0.8,0.7,1.2
				c0.1,0.2,0.2,0.4,0.3,0.6c0.2,0.3,0.4,0.5,0.6,0.8c0.1,0.1,0.2,0.2,0.3,0.2c0.2,0.2,0.5,0.4,0.8,0.5c0.3,0.2,0.6,0.2,1,0.2
				c0.3,0,0.7-0.1,1-0.2c0.3-0.1,0.6-0.3,0.8-0.5c0.4-0.5,0.8-1.1,0.7-1.8c0-0.2-0.1-0.4-0.1-0.7c-0.1-0.4-0.3-0.8-0.6-1.1
				c-0.1-0.1-0.2-0.2-0.3-0.3c0.1,0.2,0.3,0.3,0.4,0.5c-0.3-0.3-0.4-0.7-0.6-1.1c-0.1-0.2-0.2-0.4-0.3-0.6c-0.1-0.1-0.1-0.2-0.2-0.3
				c-0.2-0.2-0.4-0.5-0.6-0.7c-0.2-0.2-0.5-0.4-0.8-0.5c-0.3-0.2-0.6-0.2-1-0.2c-0.3,0-0.7,0.1-1,0.2c-0.3,0.1-0.6,0.3-0.8,0.5
				c-0.4,0.5-0.8,1.1-0.7,1.8c0,0.2,0.1,0.4,0.1,0.7C372.3,47.4,372.5,47.8,372.8,48.1L372.8,48.1z"/>
		</g>
	</g>
	<g>
		<g>
			<path class="st5" d="M373.8,43.5c0,0,0.1,0,0.1,0c-0.2,0-0.4-0.1-0.7-0.1c0.2,0,0.5,0.1,0.7,0.2c-0.2-0.1-0.4-0.2-0.6-0.3
				c0.9,0.4,1.7,1,2.4,1.5c-0.2-0.1-0.3-0.3-0.5-0.4c1.3,1,2.5,2.2,3.6,3.6c-0.1-0.2-0.3-0.3-0.4-0.5c0.2,0.2,0.3,0.4,0.4,0.6
				c0.4,0.5,0.8,1,1.5,1.1c0.6,0.2,1.4,0.1,1.9-0.3c0.5-0.3,1-0.9,1.1-1.5c0.1-0.6,0.1-1.4-0.3-1.9c-1.1-1.5-2.3-2.9-3.7-4.1
				c-0.8-0.6-1.6-1.3-2.4-1.8c-0.3-0.2-0.7-0.5-1.1-0.6c-0.8-0.4-1.4-0.5-2.3-0.6c-0.6-0.1-1.4,0.3-1.8,0.7
				c-0.4,0.4-0.8,1.1-0.7,1.8c0,0.6,0.2,1.3,0.7,1.8C372.5,43.2,373.1,43.4,373.8,43.5L373.8,43.5z"/>
		</g>
	</g>
	<g>
		<g>
			<path class="st5" d="M182.9,79.7c-5.3,5.9-11.9,11.3-19.7,13.4c-1.9,0.5-3.8,0.8-5.7,0.8c-2.1,0-3.8-0.7-5.5-1.8
				c-3.3-2.2-6.3-4.8-8.9-7.8c-2.9-3.3-5.3-7-7.2-11c-0.6-1.2-2.3-1.5-3.4-0.9c-1.2,0.7-1.5,2.2-0.9,3.4c3.8,8,9.8,14.9,17,20
				c2,1.4,4.1,2.5,6.5,2.9c2.4,0.4,4.9,0.1,7.3-0.3c4.4-0.8,8.5-2.7,12.3-5.1c4.4-2.8,8.3-6.3,11.8-10.1
				C188.6,80.9,185.1,77.3,182.9,79.7L182.9,79.7z"/>
		</g>
	</g>
	<g>
		<g>
			<path class="st5" d="M138,55.3c-1.1,6.8-1.8,14-1.1,20.9c0.7,6.4,2.9,12.3,8.1,16.3c1.1,0.8,2.8,0.2,3.4-0.9
				c0.8-1.3,0.2-2.6-0.9-3.4c-4-3.1-5.4-8.6-5.8-13.4c-0.4-6,0.1-12.2,1.1-18.2c0.2-1.3-0.3-2.7-1.7-3.1
				C139.9,53.3,138.2,54,138,55.3L138,55.3z"/>
		</g>
	</g>
	<g>
		<g>
			<path class="st5" d="M142.4,45.6c-2.4,2.9-4.8,6-5.6,9.8c-0.9,4.1-0.6,8.6-0.7,12.8c0,4.1-0.2,8.4,0.8,12.4c1,3.8,3.3,7,5.5,10.1
				c0.8,1.1,2.2,1.6,3.4,0.9c1.1-0.6,1.7-2.3,0.9-3.4c-2-2.7-4-5.5-4.9-8.7c-1-3.5-0.7-7.2-0.7-10.7c0-3.6-0.2-7.4,0.3-11
				c0.5-3.3,2.5-6,4.5-8.5c0.8-1.1,1-2.5,0-3.5C145.1,44.7,143.3,44.5,142.4,45.6L142.4,45.6z"/>
		</g>
	</g>
	<g>
		<g>
			<path class="st5" d="M142.8,90.3c-3.4-1.2-5.1-5.1-5.9-8.3c-1-4-1-8.2-1-12.3c0-8.3,1.7-17.1,7.3-23.5c0.9-1,1-2.5,0-3.5
				c-0.9-0.9-2.6-1-3.5,0c-5.1,5.8-7.6,13.2-8.4,20.8c-0.5,4.1-0.4,8.3-0.1,12.5c0.2,3.6,0.7,7.2,2,10.5c1.6,3.9,4.3,7.2,8.3,8.6
				c1.3,0.5,2.7-0.5,3.1-1.7C145,92,144.1,90.7,142.8,90.3L142.8,90.3z"/>
		</g>
	</g>
	<g>
		<g>
			<path class="st5" d="M211.6,38c0.1,0,0.1-0.1,0.2-0.1c-0.6,0.1-1.3,0.2-1.9,0.3c0.1,0,0.1,0,0.2,0.1c-0.4-0.2-0.7-0.4-1.1-0.6
				c-0.4-0.4-0.1-0.4-0.1,0.1c0,0.4,0.1,0.8,0.2,1.2c0.1,0.6,0.2,1.1,0.2,1.7c0.2,1.4,0.3,2.8,0.3,4.3c0.1,2.8,0.1,5.6,0.1,8.3
				c0,5.7,0.2,11.4,0.6,17.1c0.4,5.8,1,11.5,1.8,17.2c0.4,2.7,0.6,5.6,1.3,8.2c0.9,3.2,4.8,2.4,7.3,2.5c6.5,0.1,13.1,0.1,19.6,0.2
				c3.2,0,3.2-5,0-5c-4.1,0-8.1-0.1-12.2-0.1c-4,0-8,0.2-11.9-0.1c0.4,0.1,0.8,0.2,1.3,0.3c-0.1,0-0.2-0.1-0.3-0.1
				c0.3,0.3,0.6,0.6,0.9,0.9c0.2,0.4-0.1-0.6-0.1-0.8c-0.1-0.6-0.2-1.1-0.3-1.7c-0.2-1-0.3-2.1-0.5-3.1c-0.3-2-0.6-4.1-0.8-6.1
				c-0.5-4.2-0.9-8.4-1.2-12.7c-0.3-4.2-0.4-8.5-0.5-12.7c-0.1-4.2,0.1-8.5-0.1-12.7c-0.1-2.8-0.2-13.6-5.6-10.6
				C206.3,35.2,208.8,39.5,211.6,38L211.6,38z"/>
		</g>
	</g>
	<g>
		<g>
			<path class="st5" d="M178.9,41.7c2,0.9,4,1.7,6,2.6c0.9,0.4,1.9,0.7,2.8,1.2c0.1,0.1,0.6,0.4,0.2,0.1c0.2,0.1,0.3,0.3,0.5,0.4
				c0.3,0.3-0.1-0.2,0.1,0.2c0,0.1,0.1,0.2,0.2,0.3c0.2,0.3-0.1-0.3,0,0c0.2,0.7,0,0.8,0.6-0.5c0.1-0.3,0.3-0.6,0.4-1
				c0,0-0.1,0.1-0.1,0.1c0,0,0.4-0.1,0.1-0.1c-0.3,0.1,0.1,0,0.1,0c-0.1,0-0.2,0-0.3,0c-0.2,0,0.1,0,0.1,0c-0.1,0-0.3-0.1-0.4-0.1
				c-0.1,0-0.3-0.1-0.4-0.1c0,0-0.4-0.1-0.1,0c0.3,0.1-0.1,0-0.1-0.1c-0.1,0-0.2-0.1-0.3-0.1c-0.4-0.2-0.8-0.4-1.2-0.6
				c-0.7-0.4-1.5-0.9-2.1-1.3c-0.2-0.1-0.3-0.2-0.5-0.4c-0.1-0.1-0.2-0.1-0.2-0.2c0,0,0.3,0.3,0.1,0.1c-0.3-0.3-0.7-0.6-1-0.8
				c-0.4-0.3-0.7-0.7-1-1.1c-0.2-0.2-0.3-0.4-0.4-0.5c0.3,0.4,0,0-0.1-0.2c-0.3-0.4-0.5-0.8-0.7-1.2c-0.1-0.2-0.2-0.4-0.3-0.6
				c0.2,0.5,0-0.2-0.1-0.3c-0.8,1.1-1.6,2.1-2.4,3.2c0.6,0.1-0.5-0.1,0.1,0c0.2,0,0.3,0.1,0.5,0.1c0.2,0,0.3,0.1,0.4,0.1
				c0.1,0,0.7,0.2,0.1,0c0.3,0.1,0.6,0.3,0.8,0.4c0.2,0.1,0.3,0.2,0.5,0.3c0.4,0.3-0.2-0.2,0,0c0.2,0.2,0.5,0.4,0.7,0.6
				c0.1,0.1,0.2,0.2,0.3,0.3c0.4,0.5-0.3-0.4,0.1,0.1c0.2,0.3,0.3,0.5,0.5,0.8c0,0.1,0.1,0.2,0.1,0.3c0.1,0.2,0.1,0.1-0.1-0.2
				c0.1,0.1,0.1,0.4,0.2,0.5c1.4-0.8,2.8-1.6,4.2-2.4c-1.5-1.8-3.2-3.5-5-4.9c-1-0.8-2.5-1.1-3.5,0c-0.8,0.9-1.1,2.7,0,3.5
				c1.9,1.5,3.5,3.1,5,4.9c0.7,0.8,2.2,0.9,3,0.4c0.9-0.6,1.5-1.7,1.1-2.8c-1.2-4-4.8-6.8-9-7.1c-1.6-0.1-2.9,1.7-2.4,3.2
				c1.5,4.5,5.2,7.6,9.2,9.8c2.4,1.3,6.1,2.6,8.2-0.1c1.1-1.4,0.6-3.4-0.3-4.8c-0.8-1.2-1.8-2.1-3.1-2.7c-2.7-1.3-5.5-2.4-8.2-3.5
				c-1.2-0.5-2.7-0.4-3.4,0.9C177.4,39.4,177.6,41.2,178.9,41.7L178.9,41.7z"/>
		</g>
	</g>
	<g>
		<g>
			<path class="st5" d="M168.9,33.7C168.3,33.6,168.8,33.7,168.9,33.7c0.2,0.1,0.4,0.1,0.6,0.2c0,0,0.6,0.2,0.3,0.1
				c-0.3-0.1,0.2,0.1,0.3,0.1c0.3,0.2,0.6,0.4,0.9,0.6c0.4,0.2-0.1-0.1,0.1,0.1c0.1,0.1,0.3,0.2,0.4,0.4c0.5,0.5,1,1,1.5,1.6
				c-0.2-0.3,0-0.1,0.1,0.1c0.1,0.2,0.2,0.3,0.3,0.5c0.2,0.3,0.5,0.7,0.7,1c0.9,1.4,1.6,2.8,2.5,4.1c0.5,0.8,1.1,1.5,1.7,2.3
				c0.3,0.3,0.5,0.6,0.8,0.9c0.1,0.1,0.1,0.1,0,0c0,0.1,0.1,0.1,0.1,0.2c0.1,0.2,0.3,0.4,0.4,0.6c0.7,1.1,2.3,1.6,3.4,0.9
				c1.1-0.7,1.6-2.2,0.9-3.4c-1-1.7-2.4-2.9-3.3-4.3c-1-1.5-1.9-3.1-2.9-4.7c-1-1.5-2.1-2.9-3.5-3.9c-1.6-1.3-3.4-2-5.4-2.3
				c-1.3-0.2-2.6,1.3-2.5,2.5C166.4,32.7,167.5,33.5,168.9,33.7L168.9,33.7z"/>
		</g>
	</g>
	<g>
		<g>
			<path class="st5" d="M159.5,39.2c4.7-0.7,9.4,0,14,0.7c2.1,0.3,4,0.5,5.5,2.1c0.7,0.7,1.4,1.6,2,2.4c0.5,0.7,1.5,1.9,1.7,2.5
				c0-0.4,0-0.9,0-1.3c0.6-0.6,0.7-0.8,0.2-0.5c-0.1,0.1-0.2,0.1-0.3,0.1c-0.1,0-0.2,0.1-0.3,0.1c0.5,0.2,0.7,0.6,0.8,1.2
				c-0.2,0.4-0.4,0.7-0.6,1.1c1.1-1.4,3.4-1.9,5-2.3c-0.6-1.5-1.3-3-1.9-4.6c-1.9,1-4.3,0-6.1-0.8c-2.1-1-4.6-2.1-6.3-3.8
				c-0.2,1.3-0.3,2.6-0.5,3.9c1.8-1,4.1-0.4,5.7,0.8c0.8,0.6,1.5,1.4,2.1,2.2c0.4,0.5,0.7,1.1,1.1,1.7c0.1,0.2,0.2,0.5,0.4,0.7
				c0.4,0.6,0,0.4,0.2-0.2c0.2-0.4,0.4-0.7,0.6-1.1c-0.1,0.1-0.1,0.1-0.2,0.2c-2.4,2.2,1.2,5.7,3.5,3.5c1.9-1.7,0.6-4.1-0.5-5.9
				c-1-1.7-2.2-3.4-3.8-4.6c-3.3-2.7-7.8-3.7-11.7-1.6c-1.4,0.8-1.6,2.8-0.5,3.9c2.3,2.3,5.7,3.9,8.6,5.2c3.2,1.3,6.6,1.9,9.8,0.3
				c1.1-0.6,1.5-2,1-3.1c-0.5-1.2-1.7-1.7-2.9-1.4c-2.3,0.4-4.9,1.4-6.7,3c-2.2,1.9-1.7,5.1,0.9,6.4c1.9,1,4.9,0.2,6.4-1.4
				c2.1-2.2,0-4.8-1.4-6.7c-1.4-1.9-2.9-4.1-5-5.3c-2-1.1-4.3-1.3-6.6-1.7c-5.2-0.8-10.3-1.3-15.5-0.5c-1.3,0.2-2.1,1.9-1.7,3.1
				C156.8,38.8,158.1,39.4,159.5,39.2L159.5,39.2z"/>
		</g>
	</g>
	<g>
		<g>
			<path class="st5" d="M238.8,98c1.9,0.1,3.9,0.2,5.8,0.4c-0.2,0-0.4-0.1-0.7-0.1c0.2,0,0.4,0.1,0.5,0.1c-0.2-0.1-0.4-0.2-0.6-0.3
				c0.1,0,0.1,0.1,0.2,0.1c-0.2-0.1-0.3-0.3-0.5-0.4c0.1,0.1,0.1,0.1,0.2,0.2c-0.1-0.2-0.3-0.3-0.4-0.5c0,0.1,0.1,0.1,0.1,0.2
				c-0.1-0.2-0.2-0.4-0.3-0.6c0,0,0,0.1,0,0.1c0-0.2-0.1-0.4-0.1-0.7c0,0.1,0,0.1,0,0.2c0-0.2,0.1-0.4,0.1-0.7c0,0.1,0,0.1-0.1,0.2
				c0.1-0.2,0.2-0.4,0.3-0.6c0,0,0,0.1,0,0.1c0.1-0.2,0.3-0.3,0.4-0.5c-0.1,0.1-0.1,0.1-0.2,0.2c0.2-0.1,0.3-0.3,0.5-0.4
				c-0.1,0.1-0.2,0.1-0.3,0.2c0.2-0.1,0.4-0.2,0.6-0.3c-0.6,0.2-1.2,0.4-1.8,0.4c0.2,0,0.4-0.1,0.7-0.1c-0.7,0.1-1.4,0.1-2.1,0
				c0.2,0,0.4,0.1,0.7,0.1c-0.7-0.1-1.3-0.3-1.9-0.5c0.2,0.1,0.4,0.2,0.6,0.3c0,0-0.1,0-0.1,0c-0.6-0.3-1.2-0.4-1.9-0.3
				c-0.6,0.2-1.2,0.6-1.5,1.1c-0.3,0.6-0.5,1.3-0.3,1.9c0.2,0.6,0.6,1.2,1.1,1.5c0.6,0.3,1.3,0.5,1.9,0.7c0.7,0.2,1.4,0.2,2.1,0.3
				c1.2,0.1,2.4-0.1,3.6-0.5c0.9-0.3,1.7-0.8,2.3-1.6c0.3-0.5,0.5-1.1,0.4-1.7c0-0.8-0.3-1.5-0.9-2.1c-1.1-1.3-2.9-1.2-4.5-1.4
				c-1.3-0.1-2.7-0.2-4-0.2c-1.3,0-2.6,1.2-2.5,2.5C236.3,96.8,237.4,97.9,238.8,98L238.8,98z"/>
		</g>
	</g>
	<g>
		<g>
			<path class="st5" d="M240.7,95c1.1-0.2,2.2-0.4,3.3-0.6c0.5-0.1,1-0.2,1.5-0.3c0.3-0.1,0.6-0.1,0.9-0.2c0.6-0.1,0.6-0.1,0-0.1
				c-0.5-0.4-1-0.8-1.5-1.1c-0.1-0.5-0.2-0.5-0.1-0.2c0,0.2,0,0.4,0.1,0.7c0,0.3,0.1,0.6,0.1,0.9c0.1,0.8,0.2,1.6,0.2,2.4
				c0.1,0.7,0.1,1.5,0.2,2.2c0,0.4,0.1,0.7,0.1,1.1c0,0.1,0,0.3,0,0.4c0,0.3,0,0.3,0,0.1c0.2-0.4,0.4-0.7,0.6-1.1
				c-0.1,0.1-0.1,0.1-0.2,0.2c0.4-0.2,0.7-0.4,1.1-0.6c-1.5,0.6-3.6,0.2-5.1,0c-1.8-0.2-3.6-0.6-5.3-1.1c-3.6-0.9-7.1-2-10.5-3.4
				c0.6,1,1.2,2.1,1.7,3.1c0-0.1,0.1-0.2,0.1-0.2c-0.2,0.4-0.4,0.7-0.6,1.1c-0.2,0.2,0.2,0,0.3-0.1c0.4-0.1,0.8-0.3,1.2-0.4
				c0.8-0.2,1.6-0.4,2.4-0.6c1.5-0.3,3.1-0.5,4.7-0.6c3.4-0.3,6.7-0.6,10.1-0.9c-0.2-1.6-0.4-3.3-0.7-4.9c-2.9,0.9-6,1.3-9,0.8
				c0.2,1.5,0.4,3,0.6,4.6c1.6-0.8,3.4-1.4,5.1-1.8c0.2,0,2.4-0.4,2.4-0.4c-0.2-0.1-0.5-0.3-0.7-0.4c-0.1-0.1-0.1-0.1,0.1,0.2
				c0,0.2,0.3,0.7,0.3,0.9c0.2,0.7,0.2,1.4,0.1,2c0,0.4-0.3,0.7-0.3,1.1c0,0,0,0.1,0,0.1c-0.3,0.5-0.2,0.5,0.4,0
				c0,0.2-2.3,0.4-2.5,0.4c-0.9,0-1.8,0-2.6-0.2c-1.3-0.3-2.7,0.4-3.1,1.7c-0.3,1.2,0.4,2.8,1.7,3.1c1.6,0.3,3.2,0.5,4.8,0.3
				c1.3-0.1,2.9-0.3,4.1-1.1c2.6-1.7,2.9-5.8,2.3-8.5c-0.3-1.3-0.8-2.7-1.8-3.7c-1.2-1.2-2.8-1.1-4.4-0.9c-3,0.4-5.8,1.4-8.5,2.7
				c-1.8,0.9-1.5,4.2,0.6,4.6c3.9,0.6,7.9,0.4,11.7-0.8c1.2-0.4,2-1.5,1.8-2.7c-0.2-1.1-1.2-2.3-2.5-2.2c-4,0.4-8,0.7-12,1.1
				c-2.1,0.2-4.1,0.5-6.1,1.1c-2,0.5-4.1,1-4.8,3.2c-0.5,1.4,0.5,2.6,1.7,3.1c3.6,1.5,7.3,2.7,11.1,3.6c2,0.5,4,0.8,6.1,1.1
				c1.9,0.2,4.1,0.4,6-0.1c2.5-0.6,2.7-2.7,2.5-4.8c-0.2-2.1-0.4-4.1-0.6-6.2c-0.1-1.1-0.1-2.2-1-3.1c-0.9-0.9-2.1-0.8-3.3-0.6
				c-2.1,0.4-4.1,0.8-6.2,1.1c-1.3,0.2-2.1,1.9-1.7,3.1C238,94.7,239.3,95.3,240.7,95L240.7,95z"/>
		</g>
	</g>
	<g>
		<g>
			<path class="st5" d="M296.9,58.3c0.8,2.1,1.2,4.4,2.1,6.5c0.8,2,2,3.9,3,5.9c1.9,3.9,2.6,8.2,4.1,12.2c0.5,1.3,1.7,2.1,3.1,1.7
				c1.2-0.3,2.2-1.8,1.7-3.1c-1.5-4.2-2.3-8.5-4.2-12.6c-0.9-1.9-2.1-3.7-3-5.7c-0.9-2-1.3-4.3-2-6.3c-0.5-1.3-1.7-2.1-3.1-1.7
				C297.5,55.6,296.5,57,296.9,58.3L296.9,58.3z"/>
		</g>
	</g>
	<g>
		<g>
			<path class="st5" d="M299.3,62.9c0.6,0.4,0.9,1.4,1.2,2c0.5,0.9,0.9,1.9,1.3,2.8c0.9,2,1.6,4,2.1,6.1c0.5,2.1,0.7,4.2,1.4,6.3
				c0.7,2,1.9,3.7,2.3,5.7c0.3,1.3,1.8,2.1,3.1,1.7c1.4-0.4,2-1.7,1.7-3.1c-0.4-2.3-1.8-4.2-2.5-6.3c-0.7-2.3-0.9-4.6-1.5-6.9
				c-0.6-2.4-1.6-4.6-2.7-6.8c-1-2.2-2-4.3-4-5.8c-1.1-0.8-2.8-0.2-3.4,0.9C297.7,60.7,298.2,62,299.3,62.9L299.3,62.9z"/>
		</g>
	</g>
	<g>
		<g>
			<path class="st5" d="M292.1,51.8c1.3,4,2.5,8.2,4.1,12c0.8,1.8,1.5,3.5,2.1,5.4c0.6,1.8,1.7,3.6,1.8,5.5c0.1,1.3,1.1,2.5,2.5,2.5
				c1.3,0,2.6-1.1,2.5-2.5c-0.2-2.2-1.1-4.1-1.8-6.2c-0.7-2-1.4-4-2.3-5.9c-0.8-1.8-1.4-3.7-2-5.6c-0.7-2.2-1.4-4.3-2.2-6.5
				C295.9,47.4,291.1,48.7,292.1,51.8L292.1,51.8z"/>
		</g>
	</g>
	<g>
		<g>
			<path class="st5" d="M305.5,74.1c1.4,0.6,2.4,2.8,3.1,4.1c0.8,1.6,1.4,3.3,1.9,5.1c1.2,4.2,1.7,8.6,2.7,12.8
				c0.8,3.1,5.6,1.8,4.8-1.3c-1.2-4.6-1.7-9.4-3.1-13.9c-0.6-2.1-1.5-4.1-2.5-6c-1-1.8-2.5-4.2-4.4-5c-1.2-0.5-2.7-0.4-3.4,0.9
				C303.9,71.7,304.2,73.5,305.5,74.1L305.5,74.1z"/>
		</g>
	</g>
	<g>
		<g>
			<path class="st5" d="M299.7,71c3.2,9.9,6.9,19.6,11.3,29.1c0.6,1.2,2.3,1.5,3.4,0.9c1.3-0.7,1.5-2.2,0.9-3.4
				c-4.2-9.1-7.8-18.4-10.8-27.9C303.6,66.6,298.8,67.9,299.7,71L299.7,71z"/>
		</g>
	</g>
	<g>
		<g>
			<path class="st5" d="M310.4,103.3c0.8-0.2,1.6-0.5,2.4-0.7c0.2,0,0.3-0.1,0.5-0.1c0.1,0,0.2,0,0.4-0.1c-0.1,0-0.2,0-0.3,0
				c0.2-0.1,0.5,0,0.7-0.1c0.2,0,0.4,0,0.5,0c0.1,0,0.4,0.1,0.5,0c-0.3,0-0.4,0-0.1,0c0.1,0,0.2,0,0.2,0.1c0.4,0.1,0.7,0.2,1.1,0.3
				c0.9,0.2,1.9,0.4,2.8,0.3c0.7-0.1,1.2-0.2,1.7-0.7c0.4-0.4,0.7-1.1,0.7-1.7c-0.1-1.2-1.1-2.6-2.4-2.4c-0.2,0-0.4,0-0.7,0
				c-0.5,0,0.5,0.1,0,0c-0.4-0.1-0.8-0.2-1.2-0.3c-0.9-0.3-1.9-0.4-2.9-0.5c-1.8,0-3.6,0.5-5.3,1c-1.2,0.4-2.1,1.7-1.7,3
				C307.8,102.8,309.1,103.7,310.4,103.3L310.4,103.3z"/>
		</g>
	</g>
	<g>
		<g>
			<path class="st5" d="M418.1,36c-3.6,5.3-8.4,11.5-6.3,18.3c1,3.3,3.5,5.4,6.4,7c3.2,1.8,6.5,3.4,9.8,5.2c2.7,1.4,5.1-2.6,2.4-4.1
				c-3-1.7-6.1-3.5-8.8-5.6c-2.6-2.1-5.6-4.8-6.6-8.1c-1.1-3.5,2.1-5.7,4.9-7c3.1-1.5,6.9-3.1,10.4-1.9c2.9,1,4.2-3.6,1.3-4.6
				c-4.7-1.6-9.6,0.3-13.9,2.3c-4,1.8-8,5.3-7.7,10.2c0.3,4.6,3.7,8.6,7,11.5c3.3,2.9,7.2,5.2,11,7.4c0.8-1.4,1.6-2.8,2.4-4.1
				c-2.8-1.5-5.6-3-8.4-4.5c-2.2-1.1-4.8-2.3-5.6-4.8c-1.6-5.3,3.2-10.5,5.9-14.6C424,35.8,419.8,33.4,418.1,36L418.1,36z"/>
		</g>
	</g>
	<g>
		<g>
			<path class="st5" d="M431.4,36.2c-1.7-0.2-3.4-0.3-5.2,0c-1.6,0.3-3.1,1-4.5,1.9c-2.9,1.8-5.9,3.7-8.5,6
				c-5.4,4.7-5.6,12.8-2.5,18.8c1.4,2.7,5.6,0.3,4.1-2.4c-1.2-2.3-1.7-4.9-1.3-7.5c0.3-2.6,1.6-4.4,3.6-6c2.1-1.7,4.5-3.2,6.8-4.6
				c1.1-0.7,2.1-1.3,3.4-1.5c1.3-0.2,2.7,0,4,0.2c1.3,0.1,2.4-1.2,2.4-2.4C433.8,37.2,432.7,36.3,431.4,36.2L431.4,36.2z"/>
		</g>
	</g>
	<g>
		<g>
			<path class="st5" d="M421.3,31.6c-2,1-4,2.1-5.9,3.3c-2,1.3-4,2.6-4.6,5c-0.3,1.1-0.3,2.4-0.4,3.5c-0.1,1-0.1,2-0.1,3
				c0.1,2.4,0.5,4.7,1.5,6.8c0.5,0.9,1.8,1.4,2.7,1.1c1-0.3,1.7-1.3,1.8-2.3c0-0.3,0-0.5,0-0.8c0-1.3-1.1-2.4-2.4-2.4
				c-1.3,0-2.4,1.1-2.4,2.4c0,0.3,0,0.5,0,0.8c1.5-0.4,3-0.8,4.5-1.2c-0.7-1.4-0.9-3-0.9-4.6c0-0.9,0-1.8,0.1-2.7
				c0-0.8,0-1.7,0.2-2.4c0.3-1.1,2-1.9,3.1-2.6c1.7-1,3.4-2,5.2-2.8c1.2-0.6,1.5-2.2,0.9-3.3C423.9,31.3,422.5,31,421.3,31.6
				L421.3,31.6z"/>
		</g>
	</g>
	<g>
		<g>
			<path class="st5" d="M415.7,37.9c0.1,3.2-0.6,6.3-1.3,9.5c-0.7,3-1.5,6.1-0.8,9.2c0.7,3,3,5,5.7,6.3c3,1.5,6.2,2.5,9.4,3.5
				c3,0.9,4.2-3.7,1.3-4.6c-2.7-0.8-5.3-1.6-7.9-2.8c-2.1-1-3.9-1.9-4-4.5c-0.1-2.6,0.7-5.1,1.3-7.6c0.7-2.9,1.2-5.9,1.1-8.9
				C420.4,34.8,415.6,34.8,415.7,37.9L415.7,37.9z"/>
		</g>
	</g>
	<g>
		<g>
			<path class="st5" d="M413.1,50.1c0.3-0.9,0.6-1.8,0.9-2.7c-0.1,0.2-0.2,0.4-0.2,0.6c0.5-1.2,1-2.3,1.8-3.3
				c-0.1,0.2-0.3,0.3-0.4,0.5c0.3-0.3,0.5-0.6,0.8-0.9c-0.2,0.1-0.3,0.3-0.5,0.4c0.2-0.2,0.5-0.3,0.7-0.4c-0.2,0.1-0.4,0.2-0.6,0.2
				c0.2-0.1,0.4-0.1,0.6-0.2c0.6-0.1,1.2-0.6,1.4-1.1c0.3-0.5,0.4-1.3,0.2-1.8c-0.2-0.6-0.5-1.1-1.1-1.4c-0.6-0.3-1.2-0.3-1.8-0.2
				c-2,0.3-3.4,2-4.4,3.7c-1,1.7-1.7,3.6-2.2,5.5c-0.3,1.2,0.4,2.7,1.7,3C411.5,52.1,412.8,51.4,413.1,50.1L413.1,50.1z"/>
		</g>
	</g>
	<g>
		<g>
			<path class="st5" d="M413.7,45.5c0.4,0.1,0.7,0.1,1.1,0.1c0.4,0,0.7-0.1,1.1-0.1c0.2,0,0.3-0.1,0.5-0.1c0.3-0.1,0.7-0.3,1-0.4
				c0.3-0.2,0.5-0.4,0.7-0.6c0.2-0.2,0.4-0.5,0.4-0.8c0.1-0.3,0.1-0.6,0-1c0-0.3-0.1-0.6-0.3-0.9c-0.1-0.2-0.3-0.3-0.4-0.5
				c-0.3-0.3-0.7-0.5-1.1-0.6c-0.2,0-0.4-0.1-0.6-0.1c-0.4,0-0.8,0.1-1.2,0.3c-0.1,0-0.2,0.1-0.3,0.1c0.2-0.1,0.4-0.2,0.6-0.2
				c-0.2,0.1-0.4,0.1-0.7,0.2c0.2,0,0.4-0.1,0.6-0.1c-0.2,0-0.4,0-0.7,0c0.2,0,0.4,0.1,0.6,0.1c-0.1,0-0.1,0-0.2,0
				c-0.3-0.1-0.6-0.1-1,0c-0.3,0-0.6,0.1-0.9,0.3c-0.3,0.2-0.5,0.4-0.7,0.6c-0.2,0.2-0.4,0.5-0.4,0.8c0,0.2-0.1,0.4-0.1,0.6
				c0,0.4,0.1,0.8,0.3,1.2c0.1,0.2,0.3,0.3,0.4,0.5C412.9,45.2,413.3,45.4,413.7,45.5L413.7,45.5z"/>
		</g>
	</g>
	<g>
		<g>
			<path class="st5" d="M422.5,35.3c4.6-1.4,9.2-2.3,14-2.8c-0.4-1.5-0.8-3-1.2-4.5c-4.8,2.3-10.1,3.1-15.4,3.8
				c0.4,1.5,0.9,3.1,1.3,4.6c1.6-0.5,3.3-1,4.9-1.4c0.9-0.3,2.2-0.9,3-0.3c0.2-1.5,0.4-2.9,0.6-4.4c-4.3,1.1-8.7,1.7-13.1,2
				c0.2,1.6,0.4,3.1,0.6,4.7c2.7-1,5.5-2,8.3-2.7c1.3-0.3,2.6-0.6,3.9-0.8c0.8-0.1,1.5-0.2,2.3-0.2c0.3,0,0.6,0,0.9,0
				c0.2,0,0.5,0,0.7,0c0.4,0,0.3,0-0.3-0.1c-0.4-0.5-0.7-1-1.1-1.4c0,0.1,0.1,0.2,0.1,0.3c0-0.4,0-0.9,0-1.3c0,0.1-0.1,0.2-0.1,0.3
				c0.2-0.4,0.4-0.7,0.6-1.1c-0.9,1-3.1,1.3-4.4,1.6c-1.8,0.4-3.6,0.7-5.5,1c-3.9,0.6-7.8,1.2-11.6,1.8c0.6,1.5,1.2,2.9,1.8,4.4
				c6.8-2.9,15.2-6.5,22.5-3c-0.4-0.9-0.7-1.8-1.1-2.7c0.4-0.9,0.6-0.5,0-0.5c-0.3,0-0.7,0.1-1,0.1c-0.9,0.1-1.8,0.2-2.7,0.2
				c-1.9,0.1-3.8,0.3-5.6,0.3c-3.8,0.2-7.5,0.2-11.3,0c0.4,1.5,0.8,3,1.2,4.5c2.9-1.9,6.1-2.9,9.5-3.4c1.6-0.3,3.2-0.4,4.8-0.6
				c0.8-0.1,1.7-0.1,2.5-0.2c0.4,0,0.7,0,1.1,0c0.1,0,0.2,0,0.4,0.1c-0.3-0.2-0.3-0.2,0,0.1c0.8,1,2.5,0.9,3.4,0c1-1,0.8-2.4,0-3.4
				c-1.4-1.7-3.7-1.7-5.7-1.5c-2.2,0.2-4.4,0.4-6.5,0.7c-4.2,0.6-8.3,1.8-11.9,4.1c-2,1.3-1.2,4.4,1.2,4.5c4.6,0.1,9.2,0.1,13.8-0.2
				c2.3-0.1,4.6-0.3,6.9-0.6c2.1-0.2,3.8-0.9,4.6-3c0.4-0.9-0.2-2.3-1.1-2.7c-9.1-4.3-18.7-0.7-27.3,3c-1.1,0.5-1.4,2-1,3
				c0.5,1.2,1.6,1.6,2.8,1.4c4.3-0.6,8.6-1.3,12.8-2c1.9-0.3,3.7-0.6,5.6-1.2c1.7-0.5,4-1.2,5.2-2.5c1.7-1.9,0.4-4.7-2.1-4.9
				c-1.9-0.2-4,0.2-5.9,0.5c-4.1,0.6-8.1,1.9-11.9,3.4c-1.1,0.4-1.9,1.4-1.7,2.6c0.2,1.1,1.1,2.1,2.4,2.1c4.9-0.3,9.7-1,14.4-2.2
				c2.2-0.5,2.1-3.2,0.6-4.4c-1.6-1.2-3.7-1-5.5-0.6c-2.1,0.5-4.1,1.2-6.2,1.8c-1.2,0.4-2,1.7-1.7,3c0.4,1.4,1.7,1.9,3,1.7
				c5.7-0.8,11.3-1.7,16.5-4.3c2.1-1,1.1-4.7-1.2-4.5c-5.2,0.5-10.3,1.5-15.3,3C418.3,31.6,419.5,36.2,422.5,35.3L422.5,35.3z"/>
		</g>
	</g>
	<g>
		<g>
			<path class="st5" d="M421.3,34.5c2.7-0.9,5.5-1.5,8.3-1.7c1.4-0.1,2.9-0.2,4.3-0.1c1.2,0,2.1,0.1,3.1,0.8
				c1.1,0.7,2.7,0.2,3.3-0.9c0.7-1.2,0.2-2.6-0.9-3.3c-2.7-1.8-6.4-1.6-9.4-1.3c-3.4,0.3-6.7,0.9-9.9,1.9c-1.2,0.4-2,1.7-1.7,3
				C418.7,34,420,34.9,421.3,34.5L421.3,34.5z"/>
		</g>
	</g>
	<g>
		<g>
			<path class="st5" d="M423.8,30.9c0,0,0-0.4,0.1-0.4c0.1,0-0.5,0.4-0.3,0.3c-0.5,0.3-1,0.6-1.5,0.9c-1.2,0.7-2.3,1.4-3.5,2.2
				c-2,1.2-1.2,4.4,1.2,4.5c6.2,0.1,12.4,0.2,18.6,0.2c-0.2-1.6-0.4-3.1-0.6-4.7c-1,0.3-2,0.5-3,0.8c-3,0.8-1.7,5.4,1.3,4.6
				c1-0.3,2-0.5,3-0.8c2.6-0.7,2.1-4.7-0.6-4.7c-6.2,0-12.4-0.1-18.6-0.2c0.4,1.5,0.8,3,1.2,4.5c1.6-1,3.2-1.9,4.7-2.9
				c1.6-1,2.8-2.3,2.9-4.3c0.1-1.3-1.2-2.4-2.4-2.4C424.9,28.5,423.9,29.6,423.8,30.9L423.8,30.9z"/>
		</g>
	</g>
	<g>
		<g>
			<path class="st5" d="M418,56.3c0.2-0.1,0.5-0.2,0.7-0.3c0.1,0,0.7-0.1,0.4-0.1c-0.2,0-0.2,0,0.1,0c-0.2,0-0.3,0-0.5-0.1
				c-0.1-0.1-0.5-0.6-0.3-0.2c0.4,0.8,0.9,1.5,1.5,2.2c0.6,0.6,1.4,1.1,2.1,1.6c0.3,0.2,0.6,0.4,0.9,0.6c0.4,0.3-0.3-0.3,0.1,0.1
				c0.1,0.1,0.2,0.2,0.3,0.2c0.4,0.4,0.3,0.1-0.3-1c0.1-0.4,0.2-0.8,0.3-1.2c0.3-0.3,0.6-0.5,1-0.8c0.1,0,0.2,0,0.3,0
				c-0.1,0-0.2,0-0.4,0c-0.3,0-0.5,0-0.8,0c-0.2,0-0.5,0-0.7,0c-0.1,0-0.1,0-0.2,0c-0.2,0-0.1,0,0.2,0c-0.1,0-0.3,0-0.4-0.1
				c-0.5-0.1-1-0.2-1.5-0.4c-0.1,0-0.2-0.1-0.3-0.1c-0.1,0-0.4-0.2-0.1,0c0.3,0.1-0.1,0-0.1-0.1c-0.1-0.1-0.3-0.1-0.4-0.2
				c-0.4-0.2-0.8-0.5-1.2-0.8c-0.1,0-0.5-0.4-0.2-0.1c0.2,0.2-0.1-0.1-0.1-0.1c-0.2-0.2-0.4-0.3-0.5-0.5c-0.2-0.2-0.4-0.4-0.6-0.6
				c0,0-0.2-0.2-0.2-0.3c0,0.1,0.3,0.4,0,0.1c-0.3-0.4-0.6-0.9-0.8-1.4c-0.5,1.2-1,2.4-1.4,3.5c-0.2,0-0.5,0-0.7,0
				c-0.2-0.1-0.3-0.1-0.1-0.1c0.1,0.1,0.2,0.1,0.4,0.2c0.3,0.1,0.5,0.3,0.8,0.5c0.5,0.3,1,0.7,1.5,1c0.1,0.1,0.3,0.2,0.4,0.3
				c0.3,0.2-0.3-0.2,0,0c0.2,0.2,0.5,0.4,0.7,0.6c0.5,0.4,1,0.9,1.5,1.3c2,1.8,4,3.6,6.1,5.2c0.4-1.5,0.8-3,1.2-4.5
				c-0.2,0-0.5,0-0.7,0c0.5,0.1-0.2-0.1-0.2-0.1c-0.4-0.1-0.8-0.2-1.2-0.4c-0.4-0.1-0.8-0.3-1.2-0.4c-0.2-0.1-0.4-0.2-0.6-0.3
				c0,0-0.7-0.3-0.3-0.1c-0.8-0.3-1.6-0.7-2.3-1.2c-0.1-0.1-0.3-0.2-0.4-0.3c-0.5-0.3,0.2,0.2-0.1-0.1c-0.3-0.3-0.6-0.5-0.8-0.8
				c-0.3-0.4,0.2,0.3-0.1-0.1c-0.1-0.1-0.2-0.3-0.3-0.4c0-0.1-0.3-0.6-0.2-0.3c0.1,0.3-0.1-0.3-0.1-0.3c-0.1-0.2-0.1-0.4-0.2-0.7
				c-0.1-0.7,0,0.4,0-0.3c0-0.5,0-0.9-0.1-1.4c0-0.1,0-0.1,0-0.2c-1.4,1.2-1.8,1.7-1.1,1.5c0.2,0,0.1,0-0.1,0c0.2,0,0.3,0,0.1,0
				c-0.3-0.1,0.2,0.1,0.3,0.1c-0.5-0.2,0,0.1,0.1,0.1c-0.4-0.2,0,0,0.1,0.1c0.1,0.1,0.3,0.3,0.4,0.4c0.3,0.4-0.2-0.3,0.1,0.2
				c0.1,0.2,0.2,0.3,0.3,0.5c0.7,1,2.1,1.6,3.3,0.9c1-0.7,1.6-2.2,0.9-3.3c-0.8-1.1-1.6-2.2-2.7-3c-1.2-0.8-2.7-1.1-4.1-0.7
				c-1.1,0.3-1.9,1.1-2.2,2.1c-0.2,0.7-0.1,1.4-0.1,2.1c0.1,1.4,0.3,2.8,0.9,4.1c1,2.2,3.1,3.7,5.2,4.7c2.3,1.1,4.9,2.3,7.4,2.3
				c1,0,2.1-0.8,2.3-1.8c0.3-1.1-0.2-2.1-1.1-2.7c-0.1-0.1-0.3-0.2-0.4-0.3c-0.2-0.2,0.3,0.2-0.1-0.1c-0.3-0.2-0.5-0.4-0.8-0.7
				c-0.5-0.4-1.1-0.9-1.6-1.4c-1-0.9-2-1.8-3-2.7c-1.1-1-2.3-1.9-3.5-2.7c-0.6-0.4-1.2-0.7-1.8-1.1c-1.1-0.6-2-0.8-3.2-0.6
				c-1.6,0.3-2.1,2.3-1.4,3.5c1.8,3.5,5.4,6.2,9.3,6.7c1,0.2,2,0.2,3.1,0.1c0.8-0.1,1.5-0.2,2.2-0.7c0.9-0.7,1.3-1.8,1.1-2.9
				c-0.3-1.3-1.6-2.2-2.6-2.9c-0.3-0.2-0.7-0.4-1.1-0.7c-0.2-0.1-0.3-0.2-0.5-0.4c-0.2-0.2,0.1,0.1,0.1,0.1c0,0-0.3-0.3-0.3-0.3
				c-0.1-0.1-0.2-0.2-0.2-0.2c-0.2-0.2,0.3,0.5,0,0c-0.1-0.2-0.2-0.4-0.4-0.6c-0.4-0.7-0.9-1.3-1.5-1.7c-1.3-1-3.1-0.7-4.5-0.2
				c-1.2,0.5-2.1,1.6-1.7,3C415.4,55.7,416.8,56.8,418,56.3L418,56.3z"/>
		</g>
	</g>
	<g>
		<g>
			<path class="st5" d="M439.3,102.8c3.2-0.3,6.4-0.2,9.4-1.6c2.7-1.3,4.6-3.8,4.9-6.8c0.1-1.3-1.2-2.4-2.4-2.4
				c-1.9-0.1-3.7,1.1-5.3,1.9c-1.6,0.8-3.2,1.6-4.8,2.4c-3,1.4-6.1,2.6-9.4,2.7c0.6,1.4,1.1,2.7,1.7,4.1c0.8-0.6,1.9-0.9,2.8-1.2
				c1.3-0.5,2.6-0.9,3.8-1.4c2.6-0.9,5.2-1.9,7.9-2.8c1.2-0.4,2-1.6,1.7-3c-0.3-1.2-1.7-2.1-3-1.7c-1.6,0.5-3.2,1.1-4.8,1.6
				c-1.2,0.4-2,1.7-1.7,3c0.3,1.2,1.7,2,3,1.7c2.1-0.6,4.1-1.4,6.1-2.3c1.2-0.5,1.5-2.2,0.9-3.3c-0.7-1.2-2.1-1.4-3.3-0.9
				c-1.6,0.7-3.2,1.3-4.9,1.8c0.4,1.5,0.9,3.1,1.3,4.6c1.6-0.5,3.2-1.1,4.8-1.6c-0.4-1.5-0.9-3.1-1.3-4.6c-2.9,1-5.7,2-8.6,3
				c-2.7,1-5.8,1.7-8.1,3.5c-1.6,1.3-0.3,4.1,1.7,4.1c3.7-0.1,7.2-1.3,10.6-2.8c1.6-0.7,3.2-1.6,4.8-2.3c0.8-0.4,1.6-0.8,2.4-1.2
				c0.5-0.2,1.4-0.7,1.7-0.7c-0.8-0.8-1.6-1.6-2.4-2.4c0-0.2-0.2,0.8-0.2,0.6c-0.2,0.4-0.4,0.6-0.6,0.9c-0.5,0.6-1.3,1-1.9,1.3
				c-2.1,0.8-4.5,0.7-6.7,0.9c-1.3,0.1-2.4,1-2.4,2.4C436.9,101.6,438,102.9,439.3,102.8L439.3,102.8z"/>
		</g>
	</g>
	<g>
		<g>
			<path class="st5" d="M415.2,49.9c0.3,0,0.3,0,0.1,0c-0.2,0-0.1,0,0.1,0.1c-0.3-0.3,0.2,0.2,0,0c-0.1-0.1-0.1-0.1,0,0
				c0.1,0.1,0.1,0.1,0-0.1c0,0.1,0.1,0.1,0.1,0.2c-0.1-0.3-0.1-0.3-0.1-0.1c0-0.4,0-0.9,0-1.3c0-0.1,0.1-0.2,0.1-0.3
				c0.3-0.3,0.6-0.6,0.9-0.9c-0.1,0-0.1,0.1-0.2,0.1c0.4-0.1,0.8-0.2,1.2-0.3c-0.4,0,0.1,0.1-0.2,0c-0.2,0-0.4-0.1-0.6-0.2
				c-1.2-0.4-2.7,0.5-3,1.7c-0.9,4.1,0.5,8.1,3,11.3c2.3,2.9,5.9,5.2,9.7,4.8c1.2-0.1,2.2-0.8,2.4-2.1c0.2-1.2-0.6-2.2-1.7-2.6
				c-0.2-0.1-0.3-0.1-0.5-0.2c0.2,0.1,0.1,0.1-0.1-0.1c-0.3-0.1-0.5-0.3-0.8-0.4c-0.6-0.3-1.1-0.6-1.6-1c-0.6-0.4-0.6-0.4-1.1-0.9
				c-0.5-0.4-0.9-0.8-1.3-1.2c-1.9-1.9-3.2-3.8-4.7-6c-0.9-1.3-0.2,2.6-1.8,2c-0.1,0-0.2-0.1-0.3-0.2c0.2,0.2,0.2,0.2,0.1,0
				c0,0.1,0.1,0.1,0.1,0.2c-0.1-0.3-0.1-0.2,0,0.1c0.1,0.3,0.2,0.7,0.2,1c0.3,1.3,0.8,2.6,1.9,3.5c1,0.9,2.2,1.4,3.5,1.9
				c1.3,0.5,2.7,1.1,4,1.6c1.2,0.5,2.7-0.5,3-1.7c0.3-1.4-0.4-2.5-1.7-3c-1.2-0.5-2.4-1-3.6-1.4c-0.3-0.1-0.6-0.2-0.9-0.4
				c0.4,0.1-0.1-0.1-0.3-0.1c-0.2-0.1-0.5-0.2-0.7-0.4c-0.2-0.1,0,0,0,0.1c-0.1-0.1-0.2-0.2-0.3-0.3c0.3,0.3-0.1-0.3-0.1-0.2
				c0.1,0.2,0-0.2,0-0.2c0-0.1-0.1-0.2-0.1-0.4c-0.1-0.6-0.2-1.1-0.4-1.7c-0.5-1.4-1.6-2.6-3.1-3.1c-1.7-0.5-3.7,0.5-4.2,2.2
				c-0.5,1.6,0.6,2.9,1.5,4.1c1.5,2.1,3.1,4.3,5,6.1c2.1,2,4.5,3.6,7.2,4.6c0.2-1.6,0.4-3.1,0.6-4.7c-0.3,0-0.7,0.1-1,0
				c-0.1,0-0.6-0.1-0.2,0c-0.2,0-0.3-0.1-0.5-0.1c-0.3-0.1-0.7-0.2-1-0.3c-0.4-0.1,0.3,0.1-0.1,0c-0.2-0.1-0.4-0.2-0.5-0.3
				c-0.3-0.2-0.6-0.4-0.9-0.6c0,0-0.4-0.3-0.2-0.2c0.2,0.1-0.3-0.2-0.3-0.3c-0.5-0.5-1-1-1.5-1.6c0.2,0.2,0,0-0.1-0.1
				c-0.1-0.1-0.2-0.3-0.3-0.4c-0.2-0.3-0.4-0.6-0.6-1c-0.2-0.3-0.4-0.7-0.5-1c0.1,0.3-0.1-0.2-0.1-0.2c-0.1-0.2-0.1-0.3-0.2-0.5
				c-0.1-0.4-0.2-0.7-0.3-1.1c0-0.1-0.1-0.7-0.1-0.4c0,0.2,0-0.2,0-0.3c0-0.4,0-0.7,0-1.1c0-0.2,0-0.3,0-0.5
				c-0.1,0.4,0.1-0.3,0.1-0.3c-1,0.6-2,1.1-3,1.7c1.1,0.4,2.4,0.6,3.4,0c1.2-0.7,1.7-2.1,1.2-3.4c-0.7-2.1-2.7-3.3-4.8-3.4
				c-1.3-0.1-2.5,1.1-2.4,2.4C412.8,48.8,413.8,49.8,415.2,49.9L415.2,49.9z"/>
		</g>
	</g>
	<g>
		<g>
			<path class="st5" d="M444.8,101.7c3.4-0.8,6.7-2.2,9.6-4.1c1-0.7,1.6-2.2,0.9-3.3c-0.7-1.1-2.1-1.5-3.3-0.9c-2,1-4,2.2-5.4,3.9
				c-0.3,0.3-0.5,0.6-0.7,1c-0.1,0.1-0.1,0.2-0.2,0.3c0,0-0.3,0.5-0.1,0.2c0.2-0.3-0.1,0.1-0.1,0.2c-0.1,0.1-0.2,0.2-0.2,0.3
				c-0.1,0.1-0.2,0.2-0.3,0.3c-0.2,0.2,0.4-0.3,0,0c-0.2,0.1-0.4,0.3-0.6,0.4c-0.2,0.1-0.5,0.2-0.7,0.3c0.4-0.3,0.2-0.1,0,0
				c-0.1,0-0.3,0.1-0.4,0.1c-0.3,0.1-0.5,0.2-0.8,0.3c0.4,1.5,0.9,3.1,1.3,4.6c2.4-0.8,4.7-1.7,7-2.7c0.6-0.3,1.3-0.5,1.8-1
				c0.8-0.9,1-1.9,0.7-3c-0.3-1.2-0.6-2.3-0.9-3.5c-0.3-1.2-1.7-2.1-3-1.7c-1.3,0.4-2,1.6-1.7,3c0.2,0.9,0.5,1.9,0.7,2.8
				c0.1,0.2,0.1,0.5,0.2,0.8c1.2-1.7,1.4-2.3,0.7-1.9c-0.1,0.1-0.2,0.1-0.3,0.2c-0.4,0.2-0.9,0.4-1.3,0.6c-0.2,0.1-0.4,0.2-0.6,0.3
				c-0.1,0.1-0.2,0.1-0.4,0.2c0.3-0.1,0.3-0.1,0,0c-0.4,0.2-0.9,0.4-1.3,0.5c-0.9,0.4-1.9,0.7-2.8,1c-1.2,0.4-2.1,1.7-1.7,3
				c0.4,1.2,1.7,2.1,3,1.7c1.1-0.4,2.3-0.8,3.3-1.4c1.2-0.8,2.1-1.8,2.9-3c0.1-0.1,0.1-0.2,0.2-0.3c0.2-0.2-0.3,0.3,0,0
				c0.2-0.2,0.4-0.4,0.6-0.6c0.2-0.2,0.4-0.3,0.6-0.5c0.3-0.2,0.1-0.2,0,0c0.1-0.1,0.2-0.2,0.3-0.2c0.9-0.6,1.9-1.1,2.9-1.6
				c-0.8-1.4-1.6-2.8-2.4-4.1c-1.3,0.9-2.8,1.7-4.2,2.3c-0.6,0.2,0.5-0.2-0.1,0c-0.2,0.1-0.4,0.2-0.6,0.2c-0.4,0.1-0.7,0.3-1.1,0.4
				c-0.8,0.3-1.6,0.5-2.4,0.7c-1.2,0.3-2.1,1.8-1.7,3C442.2,101.3,443.5,102,444.8,101.7L444.8,101.7z"/>
		</g>
	</g>
	<g>
		<g>
			<path class="st5" d="M431.4,101.2c4.6-1.2,9.3-2.7,13.7-4.6c2.3-1,3.9-2.4,5.3-4.4c1.4-2,2.7-3.9,2.9-6.3
				c0.3-2.5-3.3-3.1-4.5-1.2c-2,3.4-4.3,7.3-8.3,8.5c-3,0.9-1.7,5.5,1.3,4.6c5.3-1.5,8.5-6.2,11.2-10.7c-1.5-0.4-3-0.8-4.5-1.2
				c-0.1,1.4-1.5,2.9-2.3,4c-1.1,1.4-2.4,2.2-4.1,2.8c-3.9,1.4-7.9,2.8-12,3.9C427.1,97.4,428.4,102,431.4,101.2L431.4,101.2z"/>
		</g>
	</g>
	<g>
		<g>
			<path class="st5" d="M438.8,101.7c3.8,0.2,7.8-0.8,11-2.9c0.9-0.6,1.8-1.2,2.3-2.1c0.6-1,0.6-2.3,0.6-3.4c0-2,0-4.1,0-6.1
				c0-1.3-1.1-2.5-2.4-2.4c-1.3,0.1-2.4,1.1-2.4,2.4c0,1.8,0,3.6,0,5.4c0,0.4,0,0.8,0,1.3c0,0.2,0,0.3,0,0.5c0,0.3,0,0.3,0-0.1
				c0,0.1,0,0.1-0.1,0.2c0.1-0.1,0.4-0.5,0.1-0.3c0,0-0.1,0.1-0.1,0.1c-0.2,0.2-0.2,0.2,0.1,0c-0.2,0.2-0.7,0.5-0.9,0.6
				c-0.3,0.2-0.7,0.4-1,0.6c-0.2,0.1-0.4,0.2-0.6,0.3c-0.4,0.2,0.2-0.1-0.1,0c-0.7,0.3-1.5,0.5-2.3,0.7c-0.4,0.1-0.7,0.2-1.1,0.2
				c-0.1,0-0.7,0.1-0.4,0.1c0.3,0-0.2,0-0.3,0c-0.8,0.1-1.7,0.1-2.5,0.1c-1.3-0.1-2.5,1.1-2.4,2.4
				C436.5,100.6,437.5,101.6,438.8,101.7L438.8,101.7z"/>
		</g>
	</g>
	<g>
		<g>
			<path class="st5" d="M438.2,100.2c3.2-1.1,6.3-2.5,9.2-4.4c1.5-0.9,2.9-2,4.2-3.1c1.3-1.1,2.6-2.3,3.3-3.8
				c0.5-1.1,0.4-2.6-0.9-3.3c-1.1-0.6-2.7-0.3-3.3,0.9c-0.2,0.3-0.3,0.6-0.5,1c-0.2,0.3,0.2-0.2-0.1,0.1c-0.1,0.1-0.2,0.2-0.3,0.4
				c-0.5,0.5-1,1-1.6,1.4c-1,0.8-2.1,1.7-3.4,2.5c-1.3,0.8-2.6,1.5-3.9,2.2c-1.4,0.7-2.4,1.1-3.9,1.6c-1.2,0.4-2.1,1.7-1.7,3
				C435.6,99.7,436.9,100.6,438.2,100.2L438.2,100.2z"/>
		</g>
	</g>
	<g>
		<g>
			<path class="st5" d="M169.6,42.1c0.7,1,1.5,1.8,2.4,2.6c0.4,0.4,0.7,0.8,1.1,1.1c0.2,0.2-0.2-0.3,0,0.1c0.1,0.1,0.2,0.2,0.2,0.3
				c0.2,0.2,0.4,0.5,0.5,0.8c0.6,0.9,1.2,1.7,1.8,2.6c0.1,0.2,0.2,0.4,0.4,0.6c0.1,0.1,0.1,0.3,0.2,0.4c0.2,0.3,0-0.1,0-0.1
				c0.1,0,0.2,0.6,0.2,0.7c0.1,0.3,0.2,0.6,0.2,0.9c0.2,1.2,1.8,2,3,1.7c1.3-0.4,1.9-1.6,1.7-3c-0.4-2.3-1.8-4.3-3.1-6.2
				c-0.7-1-1.5-2.1-2.4-3c-0.4-0.4-0.7-0.7-1.1-1.1c-0.2-0.2-0.4-0.4-0.6-0.6c-0.1-0.1-0.2-0.2-0.3-0.3c-0.1-0.1-0.3-0.5,0,0
				c-0.4-0.5-0.8-0.9-1.4-1.1c-0.6-0.2-1.3-0.1-1.8,0.2C169.5,39.4,168.8,41,169.6,42.1L169.6,42.1z"/>
		</g>
	</g>
	<g>
		<g>
			<path class="st5" d="M170.2,41.7C170.6,41.9,170.1,41.6,170.2,41.7c0.2,0.1,0.3,0.2,0.5,0.2c0.3,0.1,0.5,0.3,0.8,0.5
				c0,0,0.5,0.4,0.3,0.2c-0.2-0.2,0.2,0.2,0.2,0.2c0.2,0.2,0.5,0.4,0.7,0.6c0.4,0.4,0.8,0.9,1.2,1.3c0.1,0.2,0.3,0.3,0.1,0.1
				c0.1,0.1,0.2,0.2,0.2,0.3c0.2,0.3,0.4,0.5,0.6,0.8c1.4,2.1,2.4,4.4,3.4,6.7c0.5,1.2,2.3,1.5,3.3,0.9c1.2-0.8,1.4-2,0.9-3.3
				c-2.3-5.3-5.1-11-10.8-13.2c-1.2-0.5-2.7,0.5-3,1.7C168.2,40.2,169,41.3,170.2,41.7L170.2,41.7z"/>
		</g>
	</g>
	<g>
		<g>
			<path class="st5" d="M169.6,41.1c0.1,0,0.7,0.3,0.1,0c0.2,0.1,0.3,0.2,0.5,0.2c0.3,0.1,0.6,0.3,0.9,0.5c0.6,0.3,1.2,0.7,1.8,1.1
				c0.1,0.1,0.3,0.2,0.4,0.3c-0.5-0.3,0,0,0.1,0.1c0.3,0.2,0.6,0.5,0.9,0.7c0.5,0.5,1,1,1.4,1.5c0.1,0.1,0.2,0.2,0.3,0.4
				c0,0.1,0.4,0.5,0.2,0.3c-0.2-0.3,0.1,0.2,0.2,0.2c0.1,0.2,0.2,0.3,0.3,0.5c0.4,0.6,0.7,1.2,1.1,1.8c0.2,0.3,0.3,0.7,0.5,1
				c0.2,0.4-0.1-0.2,0,0c0.1,0.1,0.1,0.3,0.2,0.4c0.3,0.7,0.5,1.4,0.7,2.2c0.3,1.2,1.8,2.1,3,1.7c1.3-0.4,2-1.6,1.7-3
				c-1.6-6.7-6.5-12.1-12.9-14.6c-1.2-0.5-2.7,0.5-3,1.7C167.6,39.5,168.3,40.6,169.6,41.1L169.6,41.1z"/>
		</g>
	</g>
	<g>
		<g>
			<path class="st5" d="M169.7,38.4C170.2,38.6,169.5,38.3,169.7,38.4c0.1,0.1,0.2,0.1,0.4,0.2c0.2,0.1,0.5,0.3,0.7,0.4
				c0.5,0.3-0.2-0.2,0,0c0.1,0.1,0.2,0.2,0.4,0.3c0.2,0.2,0.4,0.4,0.6,0.6c0.4,0.4,0.8,0.8,1.2,1.3c0.2,0.2,0.4,0.5,0.6,0.7
				c0,0,0.4,0.5,0.2,0.2c-0.2-0.2,0.2,0.3,0.2,0.2c1.5,2,2.8,4.2,3.9,6.5c0.5,1.1,2.3,1.5,3.3,0.9c1.2-0.8,1.4-2.1,0.9-3.3
				c-1.2-2.5-2.6-4.8-4.3-7c-1.8-2.4-3.8-4.7-6.7-5.7c-1.2-0.4-2.7,0.5-3,1.7C167.7,36.8,168.5,37.9,169.7,38.4L169.7,38.4z"/>
		</g>
	</g>
</g>
</svg>
